<svg xmlns="http://www.w3.org/2000/svg" width="2048" height="2048" viewBox="0 0 542 542">
  <defs>
    <path id="a" d="M128 1536h1841v529H128z"/>
  </defs>
  <path fill-rule="evenodd" d="M406 0a135 135 0 0 1 136 135v271a135 135 0 0 1-136 136H0V0Z" style="font-variation-settings:normal;-inkscape-stroke:none"/>
  <path fill="#ffc000" d="M406 34a102 102 0 0 1 102 101v271H34V34Z" color="#000" style="-inkscape-stroke:none"/>
  <path d="M429 157.01c-1-2-3-3-5-3h-15v-35c0-4-3-7-7-7h-54c-4 0-7 3-7 7v20l-26-27c-3-3-7-3-9 0l-6 5a61 61.01 0 0 0-105-4h-12c-3 0-6 3-6 7v34h-11l-5-33c-1-3-4-5-7-5h-36a6.5 6.5 0 0 0 0 13h31l5 32 21 127.02v20a24 24 0 1 0 31 28.01h120a24 24 0 1 0 1-12H205c-3-8-9-14-17-16v-15h181c3 0 5-1 6-4L430 163c1-2 0-5-1-6zm-33-32v29h-42v-29zm-86 0 29 29h-57l21-21zm-64-28c20 0 37 12 45 30l-27 27h-10v-34c0-4-3-7-7-7h-37c9-10 22-16 36-16zm-56 29h51v28h-51zm160 194.03a11.5 11.5 0 1 1 0 23 11.5 11.5 0 0 1 0-23zm-156 11a11.5 11.5 0 1 1-23 0 11.5 11.5 0 0 1 23 0zm171-51H187l-4-19.01h168a6.5 6.5 0 0 0 0-13H181l-3-18h125a6.5 6.5 0 0 0 0-13H176l-3-18.01h168a6.5 6.5 0 0 0 0-13H171l-3-20h14l1 1h219l2-1h10z"/>
  <path d="M381 186h-12a6 6 0 0 0 0 13h12a6 6 0 0 0 0-13zm-34 31h-14a6 6 0 0 0 0 13h14a6 6 0 0 0 0-13z"/>
  <text xml:space="preserve" font-family="Brandon Text" font-size="256" font-weight="700" style="line-height:0;-inkscape-font-specification:'Brandon Text Bold';text-align:center;white-space:pre;shape-inside:url(#a)" transform="translate(-268.0976,-224.14372) matrix(0.26458333,0,0,0.26458333,260.33709,302.03704)"><tspan x="491.83" y="1587.2"><tspan fill="#fff">DEMAND</tspan></tspan></text>
</svg>
