<svg xmlns="http://www.w3.org/2000/svg" width="2048" height="2048" viewBox="0 0 542 542">
  <path fill-rule="evenodd" d="M512 0A512 512 0 0 0 0 512v1024a512 512 0 0 0 512 512h1536V0Z" style="font-variation-settings:normal;-inkscape-stroke:none" transform="scale(0.26458333)"/>
  <path fill="#0080ff" d="M512 128a384 384 0 0 0-384 384v1024h1792V128Z" color="#000" style="-inkscape-stroke:none" transform="scale(0.26458333)"/>
  <text xml:space="preserve" x="269" y="498" fill="#fff" stroke-width=".3" font-family="Brandon Text" font-size="67.7" font-weight="700" style="line-height:0;-inkscape-font-specification:'Brandon Text Bold';text-align:center" text-anchor="middle"><tspan x="269" y="498">DIRECT</tspan></text>
  <path d="M180.6 84.63a45.3 45.3 0 0 0-45.17 45.17 45.3 45.3 0 0 0 45.17 45.17c20.95 0 38.68-14.45 43.73-33.88h170.81c6.78 0 11.3-4.51 11.3-11.29 0-6.77-4.52-11.3-11.3-11.3H224.33c-5.05-19.42-22.78-33.87-43.73-33.87zm0 22.59a22.65 22.65 0 0 1 22.58 22.58 22.65 22.65 0 0 1-22.58 22.58 22.65 22.65 0 0 1-22.58-22.58 22.65 22.65 0 0 1 22.58-22.58zm135.5 67.75c-20.95 0-38.68 14.45-43.73 33.87H146.72c-6.77 0-11.29 4.52-11.29 11.3 0 6.77 4.52 11.29 11.3 11.29h125.64c5.05 19.42 22.78 33.87 43.73 33.87 20.95 0 38.68-14.45 43.73-33.87h35.31c6.78 0 11.3-4.52 11.3-11.3 0-6.77-4.52-11.29-11.3-11.29h-35.31c-5.05-19.42-22.78-33.87-43.73-33.87zm0 22.58a22.65 22.65 0 0 1 22.58 22.58 22.65 22.65 0 0 1-22.58 22.59 22.65 22.65 0 0 1-22.58-22.59 22.65 22.65 0 0 1 22.58-22.58zm-67.75 67.75c-20.95 0-38.68 14.45-43.73 33.88h-57.9c-6.77 0-11.29 4.51-11.29 11.29 0 6.77 4.52 11.29 11.3 11.29h57.9c5.04 19.42 22.77 33.87 43.72 33.87s38.68-14.45 43.73-33.87h103.06c6.78 0 11.3-4.52 11.3-11.3 0-6.77-4.52-11.28-11.3-11.28H292.08c-5.05-19.43-22.78-33.88-43.73-33.88zm0 22.58a22.65 22.65 0 0 1 22.58 22.59 22.65 22.65 0 0 1-22.58 22.58 22.65 22.65 0 0 1-22.58-22.58 22.65 22.65 0 0 1 22.58-22.59z"/>
</svg>
