<svg xmlns="http://www.w3.org/2000/svg" width="2048" height="2048" viewBox="0 0 542 542">
  <path fill-rule="evenodd" d="M512 0A512 512 0 0 0 0 512v1024a512 512 0 0 0 512 512h1536V0Z" style="font-variation-settings:normal;-inkscape-stroke:none" transform="scale(0.26458333)"/>
  <path fill="#ff00a0" d="M512 128a384 384 0 0 0-384 384v1024h1792V128Z" color="#000" style="-inkscape-stroke:none" transform="scale(0.26458333)"/>
  <text xml:space="preserve" x="268" y="492" fill="#fff" stroke-width=".3" font-family="Brandon Text" font-size="67.7" font-weight="700" style="line-height:0;-inkscape-font-specification:'Brandon Text Bold';text-align:center" text-anchor="middle"><tspan x="268" y="492">EQUITY</tspan></text>
  <path stroke="#000" stroke-linecap="round" stroke-linejoin="round" stroke-width="3.18" d="M330.98 84.63a88.01 88.01 0 0 0-60.05 23.43c-34.73-32-89.03-31.16-122.72 2.54-34.56 34.56-34.56 90.8 0 125.36l117.51 117.51a7.37 7.37 0 0 0 10.43 0l117.5-117.5c34.57-34.57 34.57-90.8 0-125.37a88.07 88.07 0 0 0-62.67-25.97zm0 14.74c19.74 0 38.3 7.7 52.26 21.65 28.81 28.82 28.8 75.7 0 104.52l-112.3 112.3-112.3-112.3a73.42 73.42 0 0 1-21.65-52.26c0-19.74 7.69-38.3 21.64-52.26a73.67 73.67 0 0 1 52.26-21.61 73.69 73.69 0 0 1 49.55 19.04L239.1 139.8a7.37 7.37 0 0 0 10.42 10.42l29.2-29.2a73.42 73.42 0 0 1 52.26-21.65zm-.63 8.06a7.37 7.37 0 0 0 0 14.74c5.95 0 11.76 1.03 17.27 3.05a7.36 7.36 0 1 0 5.08-13.84 64.64 64.64 0 0 0-22.35-3.95zm43.8 20.35a7.37 7.37 0 0 0-5.53 12.14 50.14 50.14 0 0 1 11.86 32.38 7.37 7.37 0 0 0 14.74 0 64.9 64.9 0 0 0-15.35-41.91 7.35 7.35 0 0 0-5.73-2.6zM197.81 233.77a7.37 7.37 0 0 0-5.21 12.58l38.88 38.89a7.35 7.35 0 0 0 10.43 0 7.37 7.37 0 0 0 0-10.43l-38.89-38.88a7.35 7.35 0 0 0-5.2-2.16zm55.84 55.84a7.37 7.37 0 0 0-5.21 12.58l10.31 10.32a7.35 7.35 0 0 0 10.43 0 7.37 7.37 0 0 0 0-10.43l-10.32-10.31a7.35 7.35 0 0 0-5.21-2.16z"/>
</svg>
