<?xml version="1.0" encoding="UTF-8" standalone="no"?>
<svg
   width="2048"
   height="2048"
   viewBox="0 0 542 542"
   version="1.1"
   id="svg16"
   sodipodi:docname="ev.svg"
   inkscape:version="1.1 (c68e22c387, 2021-05-23)"
   inkscape:export-filename="C:\Users\HP\OneDrive\Documents\Programmation\Tests\EconValues 2\images\ev.png"
   inkscape:export-xdpi="96"
   inkscape:export-ydpi="96"
   xmlns:inkscape="http://www.inkscape.org/namespaces/inkscape"
   xmlns:sodipodi="http://sodipodi.sourceforge.net/DTD/sodipodi-0.dtd"
   xmlns="http://www.w3.org/2000/svg"
   xmlns:svg="http://www.w3.org/2000/svg">
  <defs
     id="defs20" />
  <sodipodi:namedview
     id="namedview18"
     pagecolor="#505050"
     bordercolor="#eeeeee"
     borderopacity="1"
     inkscape:pageshadow="0"
     inkscape:pageopacity="0"
     inkscape:pagecheckerboard="0"
     showgrid="false"
     inkscape:zoom="0.20526726"
     inkscape:cx="1025.4923"
     inkscape:cy="1025.4923"
     inkscape:window-width="1366"
     inkscape:window-height="705"
     inkscape:window-x="-8"
     inkscape:window-y="-8"
     inkscape:window-maximized="1"
     inkscape:current-layer="text2011" />
  <circle
     style="display:inline;fill:#000000;stroke-width:10.4911;stroke-linecap:round;stroke-linejoin:round"
     id="path1179"
     cx="271"
     cy="271"
     r="271" />
  <g
     aria-label="AV"
     id="text2011"
     style="font-weight:bold;font-size:376.389px;line-height:0px;font-family:'Brandon Text';-inkscape-font-specification:'Brandon Text Bold';text-align:center;text-anchor:middle;white-space:pre;inline-size:592.602;fill:#680000;stroke-width:0.245044">
    <g
       id="g5727"
       transform="matrix(1.1666667,0,0,1.1666667,21.75626,-45.166676)">
      <path
         d="m 390.40732,372.625 h -31.48944 c -5.72535,0 -8.87429,-3.43521 -10.30563,-6.87043 l -10.30564,-22.90141 h -77.86478 l -10.30564,22.61514 c -2.57641,5.43909 -4.86655,7.1567 -10.01936,7.1567 h -31.77571 c -4.29401,0 -6.58416,-3.72148 -4.86655,-7.44296 l 89.60176,-192.6581 c 0.8588,-1.7176 2.86268,-3.14894 4.86655,-3.14894 h 2.86267 c 2.00388,0 4.00776,1.43134 4.86655,3.14894 l 89.60177,192.6581 c 1.7176,3.72148 -0.57254,7.44296 -4.86655,7.44296 z m -69.27677,-68.70423 -21.47007,-47.23415 h -0.28626 l -21.75634,47.23415 z"
         id="path5404"
         style="fill:#00ff00;fill-opacity:1;stroke-width:0.186371" />
      <path
         d="m 127.04195,277.01162 h 1.7176 l 47.23416,-104.48768 c 0.57253,-1.43134 2.57641,-3.14894 4.86655,-3.14894 h 38.07359 c 4.29401,0 6.58415,3.72148 4.86655,7.44295 l -89.31549,192.65811 c -0.85881,1.71759 -2.57642,3.14894 -4.86655,3.14894 h -2.86268 c -2.29013,0 -4.00775,-1.43135 -4.86655,-3.14894 L 32.001107,176.81795 c -1.717611,-3.72147 0.572529,-7.44295 4.866546,-7.44295 h 38.073593 c 2.290139,0 4.29401,1.7176 4.866547,3.14894 z"
         id="path5406"
         style="fill:#ff0000;fill-opacity:1;stroke:none;stroke-width:0.186371" />
    </g>
  </g>
</svg>
