<svg xmlns="http://www.w3.org/2000/svg" width="2048" height="2048" viewBox="0 0 541.87 541.87">
  <defs>
    <path id="a" d="M219.23 1632.02h1481v341.02h-1481z"/>
  </defs>
  <path fill-rule="evenodd" d="M406.4 0a135.47 135.47 0 0 1 135.47 135.47V406.4A135.47 135.47 0 0 1 406.4 541.87H0V0Z" style="font-variation-settings:normal;-inkscape-stroke:none"/>
  <path fill="#ffa020" d="M406.4 33.87A101.6 101.6 0 0 1 508 135.47V406.4H33.87V33.87Z" color="#000" style="-inkscape-stroke:none"/>
  <text xml:space="preserve" fill="#fff" font-family="Brandon Text" font-size="256" font-weight="700" style="line-height:0;-inkscape-font-specification:'Brandon Text Bold';text-align:center;white-space:pre;shape-inside:url(#a)" transform="translate(-183.02558,-103.62503) matrix(0.26458333,0,0,0.26458333,198.94801,156.11319)"><tspan x="584.17" y="1683.22">LEAVE</tspan></text>
  <path d="M255.56 349.55a45.26 45.26 0 0 1-16.54-61.76l47.2-81.76a64.1 64.1 0 0 1 87.46-23.43 64.1 64.1 0 0 1 23.44 87.46A64.06 64.06 0 0 1 316.75 297a8.2 8.2 0 0 1 6.4-15.08 47.66 47.66 0 0 0 59.78-20.06 47.7 47.7 0 0 0-17.44-65.09 47.7 47.7 0 0 0-65.09 17.44l-47.2 81.76a28.87 28.87 0 0 0 10.55 39.4 28.87 28.87 0 0 0 39.4-10.56 8.19 8.19 0 0 1 14.17 8.18 45.26 45.26 0 0 1-61.76 16.55zm-96.78-55.87a45.26 45.26 0 0 1-16.54-61.76 8.19 8.19 0 0 1 14.18 8.18 28.87 28.87 0 0 0 10.55 39.4 28.87 28.87 0 0 0 39.4-10.56l47.2-81.76a47.7 47.7 0 0 0-17.45-65.09 47.7 47.7 0 0 0-65.09 17.44 47.66 47.66 0 0 0 12.52 61.81 8.19 8.19 0 0 1-9.86 13.07 64.05 64.05 0 0 1-16.84-83.07 64.1 64.1 0 0 1 87.46-23.43 64.1 64.1 0 0 1 23.44 87.45l-47.2 81.77a45.26 45.26 0 0 1-61.77 16.55z"/>
  <path d="M212 313.24a25.02 25.02 0 0 1-9.14-34.13l64.06-110.95a25.02 25.02 0 0 1 34.13-9.15 25.02 25.02 0 0 1 9.15 34.14L246.14 304.1a25.02 25.02 0 0 1-34.13 9.14zm80.86-140.05a8.62 8.62 0 0 0-11.76 3.16L217.04 287.3a8.62 8.62 0 0 0 14.92 8.61l64.06-110.95a8.62 8.62 0 0 0-3.16-11.77z"/>
  <path d="M275.2 171.22a8.19 8.19 0 0 1-3.69-9.62l23.24-71.28a8.19 8.19 0 1 1 15.57 5.07l-23.24 71.28a8.19 8.19 0 0 1-11.89 4.55zm28.2 16.29a8.19 8.19 0 0 1-2-12.57l50.11-55.76a8.19 8.19 0 0 1 12.19 10.94l-50.11 55.77a8.19 8.19 0 0 1-10.18 1.62zm-104.5-.95a28.69 28.69 0 0 1-10.49-39.14 28.69 28.69 0 0 1 39.15-10.5 28.69 28.69 0 0 1 10.49 39.15 28.69 28.69 0 0 1-39.15 10.49zm20.47-35.45a12.3 12.3 0 0 0-16.78 4.5 12.3 12.3 0 0 0 4.5 16.77 12.3 12.3 0 0 0 16.78-4.5 12.3 12.3 0 0 0-4.5-16.77zm108.9 110.14a28.69 28.69 0 0 1-10.49-39.14 28.69 28.69 0 0 1 39.15-10.5 28.69 28.69 0 0 1 10.49 39.15 28.69 28.69 0 0 1-39.15 10.49zm20.47-35.45a12.3 12.3 0 0 0-16.78 4.5 12.3 12.3 0 0 0 4.5 16.77 12.3 12.3 0 0 0 16.77-4.5 12.3 12.3 0 0 0-4.5-16.77z"/>
</svg>
