<svg xmlns="http://www.w3.org/2000/svg" width="2048" height="2048" viewBox="0 0 542 542">
  <path fill-rule="evenodd" d="M512 0A512 512 0 0 0 0 512v1024a512 512 0 0 0 512 512h1536V0Z" style="font-variation-settings:normal;-inkscape-stroke:none" transform="scale(0.26458333)"/>
  <path fill="#ff0040" d="M512 128a384 384 0 0 0-384 384v1024h1792V128Z" color="#000" style="-inkscape-stroke:none" transform="scale(0.26458333)"/>
  <text xml:space="preserve" x="269" y="498" fill="#fff" stroke-width=".3" font-family="Brandon Text" font-size="67.7" font-weight="700" style="line-height:0;-inkscape-font-specification:'Brandon Text Bold';text-align:center" text-anchor="middle"><tspan x="269" y="498">LEVEL</tspan></text>
  <path d="M270.93 84.63a25.17 25.17 0 0 0-25.14 25.14 24.9 24.9 0 0 0 3.52 12.7h-59.16a7.43 7.43 0 0 0-4.14 1.26H186c-.6.4-1.14.9-1.6 1.45l-.01.02c-.47.57-.85 1.2-1.13 1.88v.01l-32.35 78.42a7.47 7.47 0 0 0 13.81 5.7l25.44-61.68 25.43 61.67a7.47 7.47 0 0 0 13.8-5.7l-28.08-68.1h62.16v148.25H250.1a33.33 33.33 0 0 0-32.43 25.8H204.8a22.11 22.11 0 0 0-22.09 22.1 22.1 22.1 0 0 0 22.09 22.08h132.25c12.18 0 22.08-9.9 22.09-22.08 0-12.18-9.91-22.1-22.1-22.1h-19.49a7.47 7.47 0 0 0 0 14.94h19.5a7.16 7.16 0 0 1 0 14.3H204.8a7.16 7.16 0 0 1 0-14.3h19.5a7.47 7.47 0 0 0 7.46-7.47 18.36 18.36 0 0 1 18.34-18.33h41.64a7.47 7.47 0 0 0 0-14.94H278.4V137.41h62.15l-28.08 68.1a7.47 7.47 0 0 0 13.8 5.7l25.44-61.68 25.43 61.67a7.47 7.47 0 1 0 13.81-5.7l-32.34-78.4a7.46 7.46 0 0 0-2.75-3.37 7.46 7.46 0 0 0-4.14-1.26h-59.17a24.9 24.9 0 0 0 3.53-12.7 25.17 25.17 0 0 0-25.15-25.14zm0 14.94a10.22 10.22 0 0 1 0 20.41 10.22 10.22 0 0 1 0-20.41zM156.23 228.1a7.47 7.47 0 0 0-7.47 7.46v1.27a41.44 41.44 0 0 0 41.4 41.4 41.44 41.44 0 0 0 41.39-41.4v-1.27a7.47 7.47 0 0 0-7.47-7.46h-67.85zm161.56 0a7.47 7.47 0 0 0-7.47 7.46v1.27a41.44 41.44 0 0 0 41.4 41.4 41.44 41.44 0 0 0 41.38-41.4v-1.27a7.47 7.47 0 0 0-7.47-7.46H317.8zm-153.36 14.93h51.45a26.5 26.5 0 0 1-25.72 20.26 26.5 26.5 0 0 1-25.73-20.26zm161.56 0h51.44a26.5 26.5 0 0 1-25.72 20.26A26.5 26.5 0 0 1 326 243.03z"/>
</svg>
