<svg xmlns="http://www.w3.org/2000/svg" width="2048" height="2048" viewBox="0 0 541.9 541.9">
  <path fill-rule="evenodd" d="M406.4 0a135.5 135.5 0 0 1 135.5 135.5v270.9a135.5 135.5 0 0 1-135.5 135.5H0V0Z" style="font-variation-settings:normal;-inkscape-stroke:none"/>
  <path fill="#ff2000" d="M406.4 33.9A101.6 101.6 0 0 1 508 135.5v270.9H33.9V33.9Z" color="#000" style="-inkscape-stroke:none"/>
  <path stroke="#000" stroke-linecap="round" stroke-linejoin="round" stroke-width="8.22" d="M373.66 88.78a28.7 28.7 0 0 0-25.2 42.33l-46.95 46.95a37.94 37.94 0 0 0-46.8 0l-36.63-36.64a18.86 18.86 0 0 0 2.71-9.65c0-10.53-8.57-19.1-19.1-19.1a19.13 19.13 0 0 0-19.12 19.1 19.13 19.13 0 0 0 19.11 19.11c3.54 0 6.8-1.02 9.65-2.7l36.63 36.63a38 38 0 0 0 0 46.8l-60.5 60.5a28.52 28.52 0 0 0-19.22-7.47 28.7 28.7 0 0 0-28.66 28.66 28.7 28.7 0 0 0 28.66 28.67 28.7 28.7 0 0 0 25.2-42.33l61.28-61.28a38 38 0 0 0 18.62 7.73v48.53a28.68 28.68 0 0 0-23.88 28.24 28.7 28.7 0 0 0 28.66 28.66 28.7 28.7 0 0 0 28.66-28.66 28.69 28.69 0 0 0-23.88-28.24V246.1a38 38 0 0 0 18.62-7.73L338.15 275a18.84 18.84 0 0 0-2.7 9.65 19.11 19.11 0 0 0 38.2 0c0-10.54-8.56-19.1-19.1-19.1-3.54 0-6.8 1.02-9.65 2.7l-36.63-36.63a38 38 0 0 0 0-46.8l46.17-46.17a28.5 28.5 0 0 0 19.22 7.47 28.7 28.7 0 0 0 28.66-28.67 28.7 28.7 0 0 0-28.66-28.66Zm-181.53 43a9.56 9.56 0 0 1 19.1 0 9.56 9.56 0 0 1-19.1 0zM168.24 332.4a19.13 19.13 0 0 1-19.1-19.1 19.12 19.12 0 0 1 19.1-19.12c10.54 0 19.11 8.57 19.11 19.11s-8.57 19.11-19.1 19.11zm128.98-9.55c0 10.54-8.57 19.1-19.1 19.1a19.13 19.13 0 0 1-19.11-19.1 19.13 19.13 0 0 1 19.1-19.11 19.13 19.13 0 0 1 19.11 19.1zm-19.1-85.99a28.7 28.7 0 0 1-28.67-28.66 28.7 28.7 0 0 1 28.67-28.67 28.7 28.7 0 0 1 28.66 28.67 28.7 28.7 0 0 1-28.66 28.66zm85.98 47.77a9.56 9.56 0 0 1-19.1 0 9.56 9.56 0 0 1 19.1 0zm9.56-148.09a19.13 19.13 0 0 1-19.11-19.1 19.13 19.13 0 0 1 19.1-19.12c10.55 0 19.12 8.57 19.12 19.11s-8.57 19.11-19.11 19.11z"/>
  <text xml:space="preserve" x="268.85" y="497.86" fill="#fff" stroke-width=".26" font-family="Brandon Text" font-size="67.74" font-weight="700" style="line-height:0;-inkscape-font-specification:'Brandon Text Bold';text-align:center" text-anchor="middle"><tspan x="268.85" y="497.86">LOCAL</tspan></text>
</svg>
