<svg xmlns="http://www.w3.org/2000/svg" width="2048" height="2048" viewBox="0 0 542 542">
  <defs>
    <path id="a" d="M128 1536h1592v544H128z"/>
  </defs>
  <path fill-rule="evenodd" d="M406 0a135 135 0 0 1 136 135v271a135 135 0 0 1-136 136H0V0Z" style="font-variation-settings:normal;-inkscape-stroke:none"/>
  <path fill="#00ff40" d="M406 34a102 102 0 0 1 102 101v271H34V34Z" color="#000" style="-inkscape-stroke:none"/>
  <path d="M420 345a6 6 0 0 1 0 11H122a6 6 0 1 1 0-11h5V181l-2 2a6 6 0 0 1-9-4v-22c0-2 1-4 3-5l83-66c2-2 5-2 7 0l35 28v-12c0-3 2-6 5-6h22c3 0 5 3 5 6v38l15 12c2 1 2 3 2 5v22a6 6 0 0 1-9 4l-2-2v59h127c3 0 5 2 5 5v100h6zm-17-1v-93H282v93h13v-77c0-3 3-5 6-5h86c3 0 6 2 6 5v77zm-21 0v-16h-75v16zm0-27v-16h-75v16zm0-27v-17h-75v17ZM282 167v-8l-77-62-77 62v8l74-59c2-2 5-2 7 0zm-11 6-66-54-67 54v172h73v-83c0-3 2-6 5-6h39c3 0 5 3 5 6v83h11V173zm-6-42v-24h-10v16zm-16 214v-78h-27v34l3 1a6 6 0 0 1 0 8l-3 2v33z"/>
  <path d="M260 179v55c0 3-2 5-5 5h-39c-3 0-5-2-5-5v-55c0-3 2-6 5-6h39c3 0 5 3 5 6zm-11 49v-16h-27v16zm0-27v-17h-27v17zm-49 61v55c0 3-3 5-6 5h-39c-3 0-5-2-5-5v-55c0-3 2-6 5-6h39c3 0 6 3 6 6zm-11 49v-16h-28v16zm0-27v-17h-28v17Zm11-105v55c0 3-3 5-6 5h-39c-3 0-5-2-5-5v-55c0-3 2-6 5-6h39c3 0 6 3 6 6zm-11 49v-16h-28v16zm0-27v-17h-28v17z"/>
  <text xml:space="preserve" fill="#fff" font-family="Brandon Text" font-size="256" font-weight="700" style="line-height:0;-inkscape-font-specification:'Brandon Text Bold';text-align:center;white-space:pre;shape-inside:url(#a)" transform="matrix(0.26458333,0,0,0.26458333,24.701848,77.893005)"><tspan x="600" y="1587">RENT</tspan></text>
</svg>
