<svg xmlns="http://www.w3.org/2000/svg" width="2048" height="2048" viewBox="0 0 541.87 541.87">
  <path fill-rule="evenodd" d="M406.4 0a135.47 135.47 0 0 1 135.47 135.47V406.4A135.47 135.47 0 0 1 406.4 541.87H0V0Z" style="font-variation-settings:normal;-inkscape-stroke:none"/>
  <path fill="#4020ff" d="M406.4 33.87A101.6 101.6 0 0 1 508 135.47V406.4H33.87V33.87Z" color="#000" style="-inkscape-stroke:none"/>
  <path d="M446.15 344.7 276.8 87.84a7.03 7.03 0 0 0-11.73 0L95.7 344.7a7.03 7.03 0 0 0 5.87 10.89h338.7a7.03 7.03 0 0 0 5.87-10.9zM346.01 218.35h-8.57l-47.78-47.78h24.85zm-28.45 0h-27.55l-47.79-47.78h27.67c.2.26.4.51.64.75zm-46.63-113.88 34.31 52.04h-68.62zm-45.56 69.12 44.76 44.76h-28.26l-27.73-27.73zm-19.13 29L222 218.35h-26.14zM186.6 232.4h168.69l31.04 47.08H155.55Zm-71.96 109.15 31.65-48.02h30.32l-48.02 48.02Zm33.83 0 47.33-47.34c.22-.21.41-.44.6-.68h32.28l-48.01 48.02zm52.07 0 47.34-47.34c.21-.21.4-.44.59-.68h32.14l-48.02 48.02zm103.3 0L317.36 328a7.03 7.03 0 0 0-9.94-9.93l-23.46 23.46h-31.5l47.33-47.33c.22-.22.41-.44.6-.68h83.5l-48 48.01zm51.93 0 43.08-43.08 13.88 21.05-22.03 22.03zm54.8 0 10.05-10.05 6.63 10.05z"/>
  <path d="M332.82 302.62a7.03 7.03 0 0 0-9.94 0l-.7.7a7.03 7.03 0 0 0 9.94 9.94l.7-.7a7.03 7.03 0 0 0 0-9.94z"/>
  <text xml:space="preserve" x="581.92" y="567.38" fill="#fff" stroke-width=".26" font-family="Brandon Text" font-size="67.73" font-weight="700" style="line-height:0;-inkscape-font-specification:'Brandon Text Bold';text-align:center" text-anchor="middle" transform="translate(-312.51059,-69.543479)"><tspan x="581.92" y="567.38">STRATA</tspan></text>
</svg>
