<svg xmlns="http://www.w3.org/2000/svg" width="2048" height="2048" viewBox="0 0 541.87 541.87">
  <path fill-rule="evenodd" d="M406.4 0a135.47 135.47 0 0 1 135.47 135.47V406.4A135.47 135.47 0 0 1 406.4 541.87H0V0Z" style="font-variation-settings:normal;-inkscape-stroke:none"/>
  <path fill="#ff0" d="M406.4 33.87A101.6 101.6 0 0 1 508 135.47V406.4H33.87V33.87Z" color="#000" style="-inkscape-stroke:none"/>
  <path d="M314.23 327.94h-86.6a7.48 7.48 0 0 1-7.47-7.48V210.91a30.71 30.71 0 0 1 30.68-30.68h40.19a30.71 30.71 0 0 1 30.68 30.68v109.55a7.48 7.48 0 0 1-7.48 7.48zm-79.12-14.95h71.64V210.9c0-8.67-7.05-15.72-15.72-15.72h-40.19a15.75 15.75 0 0 0-15.73 15.72z"/>
  <path d="M155.6 327.53a7.48 7.48 0 0 1-7.48-7.47v-64.3a30.71 30.71 0 0 1 30.68-30.67h48.43a7.48 7.48 0 0 1 7.48 7.47v87.16a7.48 7.48 0 0 1-14.95 0v-79.68h-40.97a15.75 15.75 0 0 0-15.72 15.73v64.29a7.48 7.48 0 0 1-7.48 7.47zm159.03-.99a7.48 7.48 0 0 1-7.47-7.48V253.5a7.48 7.48 0 0 1 7.47-7.48h48.44a30.71 30.71 0 0 1 30.68 30.68v9.38a7.48 7.48 0 0 1-14.95 0v-9.38c0-8.67-7.06-15.73-15.73-15.73h-40.96v58.1a7.48 7.48 0 0 1-7.48 7.47zm-43.7-74.41a7.48 7.48 0 0 1-7.47-7.48v-24.17a7.48 7.48 0 0 1 14.95 0v24.17a7.48 7.48 0 0 1-7.48 7.48zm-21.97-84.89a7.47 7.47 0 0 1-7.36-8.74l3.53-20.6-14.96-14.58a7.48 7.48 0 0 1 4.14-12.75l20.67-3 9.25-18.74a7.48 7.48 0 0 1 13.4 0l9.25 18.74 20.68 3a7.48 7.48 0 0 1 4.14 12.75l-14.96 14.59 3.45 20.1a7.47 7.47 0 0 1-7.27 9.23c-1.2.04-2.4-.28-3.5-.86l-18.49-9.72-18.49 9.72c-1.1.57-2.29.86-3.48.86zm21.97-26.5c1.2 0 2.4.28 3.48.85l8.57 4.5-1.64-9.53a7.48 7.48 0 0 1 2.15-6.62l6.93-6.75-9.58-1.4a7.48 7.48 0 0 1-5.63-4.08l-4.28-8.67-4.28 8.67a7.48 7.48 0 0 1-5.63 4.1l-9.57 1.38 6.93 6.75a7.47 7.47 0 0 1 2.15 6.62l-1.64 9.54 8.57-4.5a7.45 7.45 0 0 1 3.47-.86z"/>
  <path d="M280.37 223.65H261.5a7.48 7.48 0 0 1 0-14.95h18.87a7.48 7.48 0 0 1 0 14.95zm0 31.78H261.5a7.48 7.48 0 0 1 0-14.95h18.87a7.48 7.48 0 0 1 0 14.95zM396.53 355.6H145.34a20.96 20.96 0 0 1-20.93-20.93 20.96 20.96 0 0 1 20.93-20.93h251.18a20.96 20.96 0 0 1 20.94 20.93 20.95 20.95 0 0 1-20.93 20.93zm-251.19-26.91a5.99 5.99 0 0 0 0 11.96h251.18a5.99 5.99 0 0 0 0-11.96z"/>
  <text xml:space="preserve" x="528.69" y="495.51" fill="#fff" stroke-width=".26" font-family="Brandon Text" font-size="67.73" font-weight="700" style="line-height:0;-inkscape-font-specification:'Brandon Text Bold';text-align:center" text-anchor="middle" transform="translate(-258.04363,2.3283046)"><tspan x="528.69" y="495.51">WORK</tspan></text>
</svg>
