<svg width="2048" height="2048" viewBox="0 0 542 542" xml:space="preserve" xmlns="http://www.w3.org/2000/svg"><defs><path id="a" d="M346.26527 1640.6378h1701.7347v321.53204H346.26527z"/></defs><path fill-rule="evenodd" d="M512 0A512 512 0 0 0 0 512v1024a512 512 0 0 0 512 512h1536V0Z" style="font-variation-settings:normal;-inkscape-stroke:none" transform="translate(-.00001322 -.00001322) scale(.26465)"/><path fill="#a000c0" d="M512 128a384 384 0 0 0-384 384v1024h1792V128Z" color="#000" style="fill:#ff40c0;fill-opacity:1" transform="translate(-.00001322 -.00001322) scale(.26465)"/><path style="stroke:none;stroke-width:4;stroke-linecap:round;stroke-linejoin:round;color:#000;fill:#000;-inkscape-stroke:none" d="M23.369141-2C9.3995464-1.9978317-2 9.4001903-2 23.369141c0 13.969866 11.3994815 25.367187 25.369141 25.367187h93.527339v40.105469c-14.73453 9.108617-24.61523 25.363273-24.61523 43.912113 0 28.46571 23.19154 51.65625 51.65625 51.65625 18.54894 0 34.80352-9.88057 43.91211-24.61524h86.74805c5.54615 0 10.08398-4.53783 10.08398-10.08398 0-5.54616-4.53783-10.08399-10.08398-10.08399h-79.47071c.0447-.34401.0923-.69308.13086-1.02734a2.0002019 2.0002019 0 0 0 .002-.008c.026-.23535.0606-.5073.0898-.81446v-.004c.0581-.59956.0992-1.18831.13476-1.76758v-.004c.0128-.19993.0352-.44315.0488-.73242v-.004c.0403-.83089.0645-1.66586.0645-2.51171 0-.84786-.0253-1.6866-.0645-2.51563-.0137-.29234-.0353-.53291-.0469-.72656a2.0002019 2.0002019 0 0 0 0-.006c-.0366-.58112-.0776-1.1751-.13477-1.77734a2.0002019 2.0002019 0 0 0 0-.004c-.0285-.29552-.0626-.56247-.0898-.80469-.0384-.34275-.0872-.69428-.13281-1.04297h134.68164c-.0457.35029-.0943.70399-.13282 1.04883l.002-.004c-.0272.23961-.0613.50443-.0899.79687a2.0002019 2.0002019 0 0 0 0 .002c-.0582.60413-.10088 1.2033-.13672 1.79102a2.0002019 2.0002019 0 0 0 0 .002c-.0112.1861-.0358.42606-.0488.72852l.002-.0117c-.0404.83233-.0645 1.67136-.0645 2.51758 0 .8469.0233 1.6866.0625 2.51562a2.0002019 2.0002019 0 0 0 .002.008c.0143.28189.0337.52244.0469.72852.0366.57982.0797 1.17056.13672 1.77148a2.0002019 2.0002019 0 0 0 0 .01c.0291.29308.0625.56028.0899.80469.0381.34252.0874.69039.13281 1.03711h-27.93945c-5.54616 0-10.08399 4.53782-10.08399 10.08398s4.53783 10.08399 10.08399 10.08399h35.21484c4.2373 6.85418 10.01216 12.62984 16.86719 16.86718v27.02344c-9.68922 2.71973-16.83985 11.56026-16.83985 22.08594v56.3125c0 12.67381 10.3447 23.01953 23.01954 23.01953h10.78125v23.06836c0 5.54616 4.53782 10.08398 10.08398 10.08398s10.08398-4.53782 10.08398-10.08398v-23.06836h10.77735c12.67381 0 23.01953-10.3447 23.01953-23.01953v-56.3125c0-10.52595-7.15047-19.36569-16.83984-22.08594V176.6599c14.73462-9.10852 24.61523-25.36317 24.61523-43.91211 0-28.46668-23.1915-51.656253-51.65625-51.656253-18.54884 0-34.80265 9.878884-43.91211 24.613283h-149.2384c-4.23733-6.853896-10.01301-12.627682-16.86719-16.864976V48.736328h317.65039c13.96987 0 25.36914-11.399274 25.36914-25.369141C514.00195 9.3982372 502.60258-2 488.63281-2H381.46094c-5.54616 0-10.08399 4.5378277-10.08399 10.0839844 0 5.5461566 4.53783 10.0839846 10.08399 10.0839846h107.17187c2.8868 0 5.19922 2.313009 5.19922 5.197265 0 2.886803-2.31242 5.201172-5.19922 5.201172H23.369141c-2.886803 0-5.199219-2.314369-5.199219-5.201172 0-2.884256 2.312416-5.197265 5.199219-5.197265H352.85156c5.54616 0 10.08399-4.537828 10.08399-10.0839846C362.93555 2.5378277 358.39772-2 352.85156-2Zm0 4H352.85156c3.38584 0 6.08399 2.69815 6.08399 6.0839844 0 3.3858346-2.69815 6.0839846-6.08399 6.0839846H23.369141c-5.05519 0-9.199219 4.143529-9.199219 9.197265 0 5.05519 4.144029 9.201172 9.199219 9.201172H488.63281c5.05519 0 9.19922-4.145982 9.19922-9.201172 0-5.053736-4.14403-9.197265-9.19922-9.197265H381.46094c-3.38584 0-6.08399-2.69815-6.08399-6.0839846C375.37695 4.69815 378.0751 2 381.46094 2h107.17187c11.80021 0 21.36914 9.568164 21.36914 21.367187 0 11.800109-9.56903 21.369141-21.36914 21.369141H168.98242a2.0002019 2.0002019 0 0 0-2 2v43.160156a2.0002019 2.0002019 0 0 0 .98828 1.72461c7.05539 4.139558 12.9581 10.042266 17.09766 17.097656a2.0002019 2.0002019 0 0 0 1.72461.98633h151.35156a2.0002019 2.0002019 0 0 0 1.72461-.98633C348.15343 94.599651 363.47159 85.091797 381 85.091797c26.29519 0 47.65625 21.358983 47.65625 47.656253 0 17.5284-9.50795 32.84758-23.62695 41.13086a2.0002019 2.0002019 0 0 0-.98828 1.72461v29.5664a2.0002019 2.0002019 0 0 0 1.60351 1.95899c8.67451 1.75768 15.23633 9.43069 15.23633 18.63867v56.3125c0 10.50514-8.51537 19.01953-19.01953 19.01953h-12.77735a2.0002019 2.0002019 0 0 0-2 2v25.06836c0 3.38583-2.69815 6.08398-6.08398 6.08398-3.38583 0-6.08398-2.69815-6.08398-6.08398v-25.06836a2.0002019 2.0002019 0 0 0-2-2h-12.78125c-10.50515 0-19.01954-8.51537-19.01954-19.01953v-56.3125c0-9.20798 6.56407-16.88195 15.23829-18.63867a2.0002019 2.0002019 0 0 0 1.60156-1.95899v-29.56836a2.0002019 2.0002019 0 0 0-.98633-1.72656c-7.05634-4.13955-12.96005-10.04031-17.09961-17.0957a2.0002019 2.0002019 0 0 0-1.72461-.98828h-36.27148c-3.38584 0-6.08399-2.69815-6.08399-6.08399 0-3.38583 2.69815-6.08398 6.08399-6.08398h30.25976a2.0002019 2.0002019 0 0 0 1.9668-2.35938c-.04-.21939-.075-.49415-.12695-.81836a2.0002019 2.0002019 0 0 0-.002-.008c-.0421-.25545-.0825-.50606-.11914-.75195v-.002c-.0745-.50542-.13923-1.01966-.19726-1.54101a2.0002019 2.0002019 0 0 0 0-.002c-.0302-.2701-.0612-.5176-.084-.74609v-.01c-.0505-.5334-.0898-1.07847-.125-1.63672a2.0002019 2.0002019 0 0 0 0-.002c-.0167-.26164-.0352-.48281-.0449-.67187v-.006c-.0367-.77699-.0586-1.55116-.0586-2.32031 0-.77379.021-1.5466.0586-2.32227a2.0002019 2.0002019 0 0 0 0-.0117c.007-.16354.0281-.38025.0449-.66015.0341-.55962.0733-1.10922.125-1.64649v-.002c.0214-.21911.0514-.46275.082-.73242a2.0002019 2.0002019 0 0 0 .002-.004c.0594-.53135.12387-1.05306.19922-1.56445a2.0002019 2.0002019 0 0 0 0-.004c.0333-.22857.0735-.47127.11523-.72851a2.0002019 2.0002019 0 0 0 0-.002c.0535-.33225.0901-.61197.13086-.83593a2.0002019 2.0002019 0 0 0-1.9668-2.35743H192.80859a2.0002019 2.0002019 0 0 0-1.96875 2.35157c.0414.23183.078.51322.13086.84179a2.0002019 2.0002019 0 0 0 .002.002c.0409.25217.0795.49951.11523.73828.075.50772.13998 1.02642.19922 1.55468a2.0002019 2.0002019 0 0 0 0 .002c.0308.27378.0606.5197.082.74218.0507.53457.0897 1.08494.125 1.64649.0163.2711.0367.4938.0449.66992.0368.77897.0586 1.55599.0586 2.32813 0 .77483-.021 1.54644-.0586 2.32226a2.0002019 2.0002019 0 0 0 0 .004c-.008.17916-.0297.40147-.0469.67187a2.0002019 2.0002019 0 0 0 0 .004c-.0343.55823-.0715 1.10495-.12305 1.63672a2.0002019 2.0002019 0 0 0-.002.004c-.0206.21704-.0522.46637-.084.75391-.0609.52794-.1237 1.04194-.19726 1.54102a2.0002019 2.0002019 0 0 0 0 .004c-.0343.23553-.0763.48507-.11914.75l.002-.004c-.0546.33311-.0912.60912-.13086.82812a2.0002019 2.0002019 0 0 0 1.96875 2.35742h81.79102c3.38583 0 6.08398 2.69815 6.08398 6.08399 0 3.38583-2.69815 6.08398-6.08398 6.08398h-87.80469a2.0002019 2.0002019 0 0 0-1.72461.98828c-8.28325 14.11895-23.60245 23.62696-41.13086 23.62696-26.29524 0-47.65625-21.36002-47.65625-47.65625 0-17.52841 9.508-32.845665 23.62695-41.12891a2.0002019 2.0002019 0 0 0 .98828-1.726563V46.736328a2.0002019 2.0002019 0 0 0-2-2H23.369141C11.568826 44.736328 2 35.169249 2 23.369141 2 11.570117 11.568761 2.0018316 23.369141 2ZM135.06445 44.736328a2.0002019 2.0002019 0 0 0-2 2v37.152344a2.0002019 2.0002019 0 0 0 2.35352 1.96875c.20406-.03676.46949-.07024.79101-.123047a2.0002019 2.0002019 0 0 0 .006-.002c.27504-.046.54227-.08934.80078-.126953.49547-.07133.99713-.134125 1.50586-.191407a2.0002019 2.0002019 0 0 0 .0117 0c.27433-.03239.52844-.06396.76953-.08789.52645-.05058 1.07023-.08947 1.62891-.125l-.01.002c.2765-.0162.50414-.03733.69141-.04687.77794-.03681 1.55208-.05859 2.32422-.05859.77379 0 1.54652.02097 2.32227.05859a2.0002019 2.0002019 0 0 0 .006 0c.18139.0084.40453.02775.67579.04492a2.0002019 2.0002019 0 0 0 .002.002c.55837.03441 1.10136.07169 1.62891.123047a2.0002019 2.0002019 0 0 0 .008 0c.22334.02083.47707.05374.76367.08594.51785.05851 1.02426.12071 1.52148.19336.25868.03847.52197.08097.79102.125.32908.05536.59617.08841.79492.125a2.0002019 2.0002019 0 0 0 2.36328-1.966797V46.736328a2.0002019 2.0002019 0 0 0-2-2zm2 4h13.75v32.830078c-.34137-.04453-.6847-.09085-1.02148-.128906a2.0002019 2.0002019 0 0 0-.002-.002c-.24513-.02754-.52286-.06278-.83204-.0918-.60245-.05865-1.1919-.09917-1.76953-.134766l.004.002c-.20274-.01283-.44952-.03716-.74414-.05078l.004.002c-.83225-.04037-1.66941-.06445-2.51562-.06445-.84786 0-1.68561.02527-2.51367.06445a2.0002019 2.0002019 0 0 0-.006 0c-.28986.01455-.5313.03521-.73047.04687a2.0002019 2.0002019 0 0 0-.01.002c-.57332.03647-1.16026.0754-1.75781.132813a2.0002019 2.0002019 0 0 0-.004 0c-.30331.03-.58791.06629-.85352.09766-.33045.03726-.66473.08358-.99805.126953zm6.875 48.529297c-.61865 0-1.23061.01635-1.83789.04687a2.0002019 2.0002019 0 0 0-.002 0c-.3436.01749-.63273.04807-.87109.06641-.27391.021-.58726.03849-.94336.07422a2.0002019 2.0002019 0 0 0-.006 0c-.36722.03791-.69184.08595-.97657.123047a2.0002019 2.0002019 0 0 0-.002 0c-.22823.02996-.50287.05986-.82226.109375a2.0002019 2.0002019 0 0 0-.008.002c-.34706.05535-.65942.11574-.94336.167969-.24156.04407-.52131.09005-.83789.15625a2.0002019 2.0002019 0 0 0-.006.002c-.31983.0677-.60412.138938-.85937.199219a2.0002019 2.0002019 0 0 0-.002 0c-.27213.06448-.57669.131814-.90821.21875a2.0002019 2.0002019 0 0 0-.006.002c-.28759.07637-.53476.153348-.75.214843l.002-.002c-.317.09-.65254.187063-1.00196.298828-.26481.08323-.48626.164172-.66992.226563a2.0002019 2.0002019 0 0 0-.002 0c-.34821.118824-.70544.243536-1.06836.380859a2.0002019 2.0002019 0 0 0-.004.002c-.21778.08291-.42651.166842-.62695.248047-.33889.136202-.68503.278145-1.03711.431645a2.0002019 2.0002019 0 0 0-.004.002c-12.52691 5.48754-21.2972 18.00668-21.29296 32.51953 0 19.54883 15.93843 35.48828 35.48828 35.48828 14.53564 0 27.07404-8.79648 32.54687-21.35547a2.0002019 2.0002019 0 0 0 .004-.008c.12774-.29701.24961-.5924.36718-.88477h-.002c.0945-.2348.20002-.48801.30469-.76562a2.0002019 2.0002019 0 0 0 .002-.006c.11624-.31068.22168-.61169.32227-.90234l.002-.008c.0878-.25052.18029-.51872.27149-.80468l-.002.0117c.10494-.32317.18446-.61409.25977-.87109a2.0002019 2.0002019 0 0 0 .002-.004c.0769-.26403.1657-.55979.25195-.89062v.006c.078-.29641.13559-.55957.18946-.78516v-.002c.0716-.29807.15371-.62362.22851-.98242v-.002c.0586-.28087.097-.52046.13282-.71289v-.006c.0612-.3234.13181-.67584.1914-1.06054v-.002c.0452-.2897.0707-.53118.0957-.71875a2.0002019 2.0002019 0 0 0 0-.002c.0433-.32649.0937-.68028.13477-1.07031a2.0002019 2.0002019 0 0 0 0-.006c.0347-.33671.051-.62619.0703-.86719a2.0002019 2.0002019 0 0 0 0-.006c.0205-.26406.0519-.5766.0703-.94336.0305-.60727.0488-1.22017.0488-1.83789 0-.61706-.0184-1.22929-.0488-1.83594v-.002c-.0182-.36851-.0504-.68962-.0723-.96484v-.002c-.0186-.23732-.0334-.52089-.0664-.84765a2.0002019 2.0002019 0 0 0 0-.004c-.042-.40817-.0972-.77232-.14062-1.09961a2.0002019 2.0002019 0 0 0 0-.002c-.0241-.1803-.0475-.41005-.0898-.6875a2.0002019 2.0002019 0 0 0-.002-.006c-.0609-.39153-.12968-.753-.19336-1.08984l-.002-.008c-.0353-.19113-.0735-.41751-.12695-.67773a2.0002019 2.0002019 0 0 0 0-.004c-.0764-.36716-.16026-.70632-.23633-1.02148a2.0002019 2.0002019 0 0 0 0-.002c-.0501-.20644-.10552-.45573-.17969-.74024a2.0002019 2.0002019 0 0 0 0-.004c-.089-.3385-.1816-.64333-.26172-.91993a2.0002019 2.0002019 0 0 0-.002-.004c-.0728-.24905-.14935-.52206-.24414-.82031-.0982-.3105-.19785-.59056-.28711-.84766a2.0002019 2.0002019 0 0 0 0-.006c-.0941-.26848-.19497-.55527-.3086-.85938a2.0002019 2.0002019 0 0 0-.002-.01c-.10891-.28743-.21905-.55349-.31836-.80078a2.0002019 2.0002019 0 0 0-.002-.006c-.11004-.27205-.22521-.55362-.35156-.84375v-.002c-3.57666-8.21865-10.16477-14.81805-18.375-18.41016a2.0002019 2.0002019 0 0 0-.006-.002c-.33371-.14468-.66973-.283731-1.00586-.417972a2.0002019 2.0002019 0 0 0 0-.002c-.19398-.07741-.41176-.165705-.65625-.257813l-.006-.002c-.3566-.135394-.69804-.25408-1.02149-.365234a2.0002019 2.0002019 0 0 0-.008-.002c-.20215-.0686-.432-.152118-.69531-.236329-.34086-.109121-.66487-.201385-.96875-.289062a2.0002019 2.0002019 0 0 0-.006-.002c-.22723-.06479-.48781-.143956-.78711-.222656-.32929-.08797-.62294-.152833-.875-.212891a2.0002019 2.0002019 0 0 0-.006 0c-.26022-.06112-.55551-.135338-.89062-.205078-.30771-.06472-.57785-.108702-.8086-.150391l-.008-.002c-.28817-.05358-.61057-.117706-.97266-.173828-.31178-.04864-.57708-.07675-.79492-.105469h-.002c-.29703-.03975-.62932-.09024-1.00195-.128906a2.0002019 2.0002019 0 0 0-.002 0c-.35618-.03647-.66665-.05177-.92773-.07227a2.0002019 2.0002019 0 0 0-.008-.002c-.24011-.01801-.53202-.04878-.88282-.06641-.61258-.0318-1.22738-.04687-1.84375-.04687zm237.05664 0c-14.51676 0-27.03807 8.775475-32.52343 21.308595-.14779.33734-.28673.67065-.41797.99805-.00093.002-.001.006-.002.008-.00031.00077-.002.001-.002.002-.085.20946-.17555.43623-.26758.68164v-.006c-.12961.34303-.24109.67078-.34765.97852a2.0002019 2.0002019 0 0 0-.002.006c-.0777.22644-.16457.47407-.25195.74414a2.0002019 2.0002019 0 0 0-.004.008c-.10212.32015-.18643.61729-.26562.88867a2.0002019 2.0002019 0 0 0 0 .004c-.0741.25625-.1611.54255-.24609.86719-.0783.29754-.13753.56257-.19141.78906-.0699.29509-.14955.62018-.22461.98047a2.0002019 2.0002019 0 0 0-.002.002c-.0585.28115-.0957.51551-.13086.70117a2.0002019 2.0002019 0 0 0-.002.01c-.0591.32125-.12837.67734-.18945 1.07031a2.0002019 2.0002019 0 0 0 0 .004c-.0422.27654-.0676.5064-.0918.6875-.0466.33752-.0994.70236-.14062 1.10351a2.0002019 2.0002019 0 0 0 0 .008c-.032.32345-.0462.6011-.0644.83008a2.0002019 2.0002019 0 0 0 0 .002c-.0219.2805-.0551.60455-.0742.97461-.0313.60147-.0508 1.21785-.0508 1.84179 0 .61772.0163 1.23062.0469 1.83789.0184.36554.0498.67971.0703.94336a2.0002019 2.0002019 0 0 0 .002.004c.0193.2425.0339.53383.0684.87109.04.39771.0921.75157.13476 1.06836.0258.19242.0512.43729.0977.73438.0592.37851.12832.72126.18554 1.02929.0377.20313.0779.45504.14063.75196.0722.34596.15.65793.2168.93945a2.0002019 2.0002019 0 0 0 0 .006c.0571.23749.1181.51586.20117.83008.0813.30743.1644.57637.23242.81445a2.0002019 2.0002019 0 0 0 0 .004c.0838.29085.17369.60482.2793.93554.0844.26747.16813.50429.24218.71875a2.0002019 2.0002019 0 0 0 0 .002c.10988.31786.22713.65762.36133 1.01172.001.003.003.005.004.008s.00095.005.002.008c.0897.24049.17658.44933.24805.62891a2.0002019 2.0002019 0 0 0 .006.0117c.1366.33741.27925.68505.43359 1.03906a2.0002019 2.0002019 0 0 0 0 .002c3.58294 8.1761 10.15124 14.74157 18.32813 18.32227a2.0002019 2.0002019 0 0 0 .006.002c.34068.14799.67905.28899 1.01562.42383.20844.0842.42752.17188.6582.25976a2.0002019 2.0002019 0 0 0 .0117.004c.34101.12747.67081.24171.98828.35156.22243.077.47024.16663.7461.25391.31911.10113.62218.18738.90625.26953.25547.075.53643.15903.84375.24023.30834.082.58122.14047.8125.19532.29092.0689.61158.1486.9668.22265a2.0002019 2.0002019 0 0 0 .004.002c.27703.0571.51536.0965.70899.13281.33082.062.68516.12941 1.07031.18945a2.0002019 2.0002019 0 0 0 .008.002c.27314.0415.5048.0649.69336.0898.33716.047.7001.0999 1.09375.14062.33854.0351.62458.0496.85352.0684a2.0002019 2.0002019 0 0 0 .004 0c.27194.0218.59141.0539.95899.0723.61188.0318 1.22637.0469 1.84179.0469.61772 0 1.23062-.0164 1.83789-.0469a2.0002019 2.0002019 0 0 0 .002 0c.35738-.0183.66469-.0495.92773-.0703.25095-.0197.54753-.0366.88477-.0703a2.0002019 2.0002019 0 0 0 .004 0c.39457-.0402.74383-.0934 1.05469-.13476.19807-.0264.44856-.0518.74414-.0977a2.0002019 2.0002019 0 0 0 .002 0c.37953-.0596.71707-.12836 1.01758-.18359a2.0002019 2.0002019 0 0 0 .008 0c.20736-.0389.46265-.0798.76171-.14258a2.0002019 2.0002019 0 0 0 .004-.002c.33837-.0719.64107-.14739.91211-.21094a2.0002019 2.0002019 0 0 0 .008-.002c.2475-.0591.53191-.1223.84766-.20508a2.0002019 2.0002019 0 0 0 .006-.002c.29986-.0797.5645-.15838.80078-.22656.29681-.0855.61425-.17716.95117-.28515l.008-.002c.2672-.0848.49462-.1679.68555-.23242a2.0002019 2.0002019 0 0 0 .004 0c.33821-.11514.68654-.23641 1.04687-.37305a2.0002019 2.0002019 0 0 0 .004-.002c.21627-.0826.42235-.16559.62109-.24609l.006-.002c.34535-.13837.69655-.28157 1.05664-.43945 12.51945-5.4907 21.2832-18.00739 21.2832-32.51367 0-19.55071-15.93843-35.490235-35.48828-35.490235zm-237.05664 4.000005c.54764 0 1.0933.0128 1.63672.041a2.0002019 2.0002019 0 0 0 .004 0c.20915.0104.46827.0386.78711.0625l-.006-.002c.32416.0254.60057.041.83008.0645.26264.0273.55618.071.88671.11524a2.0002019 2.0002019 0 0 0 .004 0c.28187.0372.51566.0626.70313.0918a2.0002019 2.0002019 0 0 0 .002 0c.25411.0393.54172.0962.86523.15625a2.0002019 2.0002019 0 0 0 .01.002c.27582.0499.51374.0902.70703.13085a2.0002019 2.0002019 0 0 0 .004 0c.23095.048.4924.113.79297.1836h-.006c.29915.0713.55715.12703.77539.18555a2.0002019 2.0002019 0 0 0 .01.004c.2027.0533.43627.12397.70703.20117.30376.0876.59021.16961.85352.25391.18069.0578.38906.13149.62891.21289.31775.10921.61954.21357.90039.32031a2.0002019 2.0002019 0 0 0 .006.002c.17288.065.36757.14645.58789.23437v-.002c.29986.11976.59819.24567.89648.375 7.27822 3.1863 13.13413 9.05339 16.30469 16.33984.10335.23726.20676.48664.3125.74805.10405.25906.20249.50128.28711.72461.0892.23934.17869.49744.27539.77344.0939.27038.17883.51305.25.73828a2.0002019 2.0002019 0 0 0 0 .004c.0692.21774.13955.46147.21875.73242.0872.30079.16784.57264.23242.81836.0476.18296.0966.40781.16016.66993.0772.31982.14979.61601.20703.89062.0339.16475.0689.36795.11328.60742a2.0002019 2.0002019 0 0 0 .002.008c.0656.34689.12536.66486.17188.96289.0236.15454.0462.35958.0801.61328.0485.36583.095.69117.125.98242.0207.20593.0353.45903.0586.75586a2.0002019 2.0002019 0 0 0 .002.002c.0261.32985.0527.61181.0645.84961a2.0002019 2.0002019 0 0 0 0 .002c.0275.54673.043 1.09244.043 1.63672 0 .54428-.0155 1.09195-.043 1.63867-.0116.23125-.039.50605-.0645.83399-.0244.30598-.0394.5677-.0605.77344-.0309.2925-.0767.60957-.12304.95898-.0348.26085-.0575.47408-.082.63086a2.0002019 2.0002019 0 0 0 0 .004c-.044.28443-.10353.59495-.16797.93554a2.0002019 2.0002019 0 0 0-.002.004c-.0478.2563-.0825.47078-.11718.63672a2.0002019 2.0002019 0 0 0 0 .002c-.0549.26372-.12503.55027-.20117.86719a2.0002019 2.0002019 0 0 0-.002.002c-.064.26806-.11615.50038-.16797.69727a2.0002019 2.0002019 0 0 0 0 .006c-.0597.22916-.13758.48732-.22265.77929-.0844.28815-.15567.53951-.22657.75782a2.0002019 2.0002019 0 0 0-.004.01c-.0699.21933-.15083.45369-.23828.70313a2.0002019 2.0002019 0 0 0-.004.008c-.0986.28511-.19422.55769-.29101.81641-.079.20933-.16868.43395-.26758.67968a2.0002019 2.0002019 0 0 0-.002 0c-.10842.26963-.21782.53588-.33007.79688-4.85501 11.1327-15.95579 18.94531-28.875 18.94531-17.38012 0-31.48829-14.10915-31.48828-31.48828-.004-12.90113 7.78937-23.98903 18.89843-28.85547h-.004c.30198-.13166.61615-.25955.9375-.38867a2.0002019 2.0002019 0 0 0 .004-.002c.18816-.0762.36992-.14817.54492-.21485l.004-.002c.30111-.11386.61398-.22357.9375-.33399l.002-.002c.23307-.0792.42552-.14673.58008-.19531a2.0002019 2.0002019 0 0 0 .0117-.004c.27611-.0885.57151-.17473.88477-.26367a2.0002019 2.0002019 0 0 0 .002 0c.26077-.0745.48528-.14173.67969-.19336h-.006c.24048-.0631.51258-.12379.81445-.19531.2852-.0674.53646-.12954.76367-.17774.20871-.0436.45617-.0849.74024-.13671a2.0002019 2.0002019 0 0 0 .002-.002c.31114-.0572.58877-.10986.8418-.15039l.008-.002c.19498-.03.43508-.0563.7207-.0937.32928-.0429.61636-.0852.86914-.11133l-.006.002c.2419-.0243.52547-.0414.85157-.0664.30685-.0236.55951-.05.76562-.0605.54673-.0275 1.09333-.041 1.63867-.041zm237.05664 0c17.38012 0 31.48829 14.10898 31.48828 31.49023 0 12.89569-7.78809 23.98032-18.89062 28.84961-.30347.13302-.61707.26187-.94336.39258a2.0002019 2.0002019 0 0 0-.008.004c-.18956.0768-.37105.14816-.55078.2168h.004c-.29366.11136-.59818.21731-.91797.32617-.24279.0821-.44546.15521-.61523.20899a2.0002019 2.0002019 0 0 0-.008.002c-.25804.0828-.53896.16415-.84375.25195a2.0002019 2.0002019 0 0 0-.002 0c-.26972.0778-.50661.14873-.71875.20508-.21711.0568-.46962.11329-.75586.18164-.30384.0713-.57404.1379-.8164.18945-.17693.0372-.40314.0758-.67578.12696-.33873.0623-.63951.1219-.90821.16406l.004-.002c-.16842.0261-.39028.0503-.6582.0859-.35114.0467-.66016.0933-.9336.1211l.004-.002c-.22277.0223-.48978.0382-.79883.0625a2.0002019 2.0002019 0 0 0-.002 0c-.31895.0252-.58975.0527-.81836.0645-.54607.0274-1.09113.041-1.63477.041-.54657 0-1.09264-.0128-1.63476-.041a2.0002019 2.0002019 0 0 0-.004 0c-.23759-.0117-.51734-.0403-.84375-.0664l.004.002c-.30906-.0253-.56612-.0397-.76758-.0605-.29742-.0308-.61752-.0764-.9668-.125a2.0002019 2.0002019 0 0 0-.0137-.002c-.24711-.0327-.45111-.0559-.61133-.0801h-.006c-.2933-.0459-.60422-.10438-.94336-.16797-.25437-.0477-.46774-.0843-.63671-.11914-.2578-.0538-.54187-.12253-.85743-.19727-.27472-.0651-.51137-.1179-.70703-.16992a2.0002019 2.0002019 0 0 0-.004-.002c-.22631-.0597-.47644-.13463-.75-.21485a2.0002019 2.0002019 0 0 0-.006-.002c-.28993-.0839-.55971-.16136-.8086-.24023a2.0002019 2.0002019 0 0 0-.002 0c-.19136-.0605-.40548-.13597-.64453-.21875-.30847-.10674-.60316-.20938-.88477-.31446l-.0117-.004c-.18402-.0703-.37619-.14697-.57812-.22852a2.0002019 2.0002019 0 0 0-.004-.002c-.3055-.12239-.6068-.24781-.90429-.37696l-.006-.002c-7.24717-3.17526-13.08509-9.01166-16.26172-16.25781v-.002c-.00036-.00082-.002-.001-.002-.002-.12948-.29715-.25751-.60674-.38671-.92578l-.004-.0117c-.0845-.21214-.16012-.39422-.2168-.54687a2.0002019 2.0002019 0 0 0-.004-.0137c-.10715-.28192-.21376-.58691-.32618-.91211-.0799-.23154-.15138-.43661-.20898-.61914a2.0002019 2.0002019 0 0 0-.002-.006c-.0809-.25316-.16112-.53125-.2461-.82618l-.002-.006c-.0792-.2771-.15271-.52152-.20898-.73437-.0549-.20778-.10884-.45568-.17774-.74219v.006c-.0732-.30848-.14158-.58399-.19336-.83203a2.0002019 2.0002019 0 0 0 0-.006c-.0363-.1714-.0731-.39107-.12304-.66016-.0628-.33796-.12323-.64447-.16602-.91796-.0255-.16292-.0478-.37886-.084-.64844-.0472-.35007-.0912-.6609-.11915-.93945a2.0002019 2.0002019 0 0 0-.002-.004c-.0214-.20969-.0361-.46986-.0605-.77734v-.004c-.0253-.32361-.0529-.59906-.0645-.82813v-.002c-.0274-.54607-.041-1.09308-.041-1.63672 0-.53739.0163-1.08484.0449-1.63476.0128-.24739.0404-.53465.0664-.86719v-.002c.0237-.29801.0386-.54798.0586-.75.0304-.29399.0762-.61323.125-.9668a2.0002019 2.0002019 0 0 0 0-.01c.0336-.25131.0565-.45232.0801-.60742v-.004c.0444-.28516.106-.59828.16992-.94532l.002-.01c.0477-.25291.0803-.46274.11328-.6211.0548-.26315.12725-.551.20313-.87109v-.002c.0638-.26808.11467-.50218.16601-.69727a2.0002019 2.0002019 0 0 0 .002-.002c.0585-.22362.13371-.47672.21679-.76367l.002-.006c.084-.2881.16101-.55298.23632-.78907.0657-.20263.14193-.42321.22461-.66406l.002-.004c.10687-.30865.20668-.59944.30859-.86914a2.0002019 2.0002019 0 0 0 .002-.004c.0686-.18306.14838-.3798.23438-.5918a2.0002019 2.0002019 0 0 0 .002-.008c.12161-.30354.24627-.60125.37305-.89063 4.86463-11.11485 15.95416-18.91211 28.85937-18.9121zm-8.51953 78.38671a2.0002019 2.0002019 0 0 0-2.35742 1.9668v23.13872a2.0002019 2.0002019 0 0 0 2 2h17.75a2.0002019 2.0002019 0 0 0 2-2v-23.13672a2.0002019 2.0002019 0 0 0-2.35547-1.96679c-.21444.0389-.49058.0741-.82031.1289-.26861.0438-.52436.0864-.77344.12305-.48515.0701-.97672.13143-1.47461.1875-.30992.035-.59087.0697-.84375.0937-.47277.0438-.96032.0788-1.46094.11133-.32896.021-.61251.0452-.85742.0566a2.0002019 2.0002019 0 0 0-.002 0c-.6141.0293-1.2376.042-1.86914.0469-.22691.002-.36461.0117-.41602.0117-.0378 0-.16436-.01-.38672-.0117h-.002c-.64414-.006-1.27712-.0195-1.90234-.0488a2.0002019 2.0002019 0 0 0-.004 0c-.22818-.0102-.50096-.0345-.82422-.0547h-.006c-.51229-.0336-1.00861-.0675-1.48242-.11328h-.004c-.24954-.0248-.52046-.0584-.81446-.0918-.51577-.0588-1.01958-.12119-1.50976-.19336a2.0002019 2.0002019 0 0 0-.004 0c-.23662-.0343-.48586-.0745-.75-.11719h.008c-.33919-.0563-.62049-.0915-.83789-.13086zm1.64258 4.28907c.33401.0435.67147.0897.99805.12695a2.0002019 2.0002019 0 0 0 .002 0c.26861.0305.5595.0664.875.0977a2.0002019 2.0002019 0 0 0 .006 0c.55521.0538 1.09501.0908 1.61523.125a2.0002019 2.0002019 0 0 0 .006 0c.25065.0156.54824.0429.89649.0586.69413.0326 1.37947.0466 2.05664.0527a2.0002019 2.0002019 0 0 0 .004 0c.0476.00035.18393.0117.41797.0117.2366 0 .38623-.0113.44532-.0117a2.0002019 2.0002019 0 0 0 .002 0c.66782-.005 1.34216-.0182 2.02539-.0508.35399-.0165.66256-.0455.92969-.0625a2.0002019 2.0002019 0 0 0 .002 0c.51339-.0334 1.03872-.0692 1.57617-.11914a2.0002019 2.0002019 0 0 0 .006 0c.33512-.0319.63803-.0706.91211-.10156.323-.0364.64921-.0807.97461-.12305v18.8125h-13.75zm-13.98828 34.98242c-3.75951 0-6.85156 3.09059-6.85156 6.84961v21.2832a2.0002019 2.0002019 0 0 0 2 2h51.42968a2.0002019 2.0002019 0 0 0 2-2v-21.2832c0-3.75902-3.09145-6.84961-6.85156-6.84961h-37.82226zm0 4h41.72656c1.58989 0 2.85156 1.26063 2.85156 2.84961v19.2832H357.2793v-19.2832c0-1.58898 1.26308-2.84961 2.85156-2.84961zm-4.84961 38.30078a2.0002019 2.0002019 0 0 0-2 2v18.86328c0 3.75961 3.0906 6.84961 6.84961 6.84961h41.72851c3.76011 0 6.85157-3.0906 6.85157-6.84961v-18.86328a2.0002019 2.0002019 0 0 0-2-2zm2 4h47.42969v16.86328c0 1.58898-1.26168 2.84961-2.85157 2.84961h-41.72851c-1.58898 0-2.84961-1.25922-2.84961-2.84961zM23.369 46.736h95.528v43.163c-14.71 8.63-24.615 24.603-24.615 42.855 0 27.381 22.276 49.656 49.656 49.656 18.252 0 34.225-9.905 42.855-24.615h87.804c4.466 0 8.084-3.618 8.084-8.084 0-4.466-3.618-8.084-8.084-8.084h-81.791c.052-.287.089-.576.136-.863.042-.26.085-.52.123-.781.079-.536.144-1.074.206-1.612.029-.262.063-.523.088-.786.055-.567.095-1.136.13-1.706.015-.236.036-.47.047-.706.039-.804.061-1.609.061-2.42 0-.81-.023-1.617-.061-2.421-.011-.235-.032-.467-.046-.701-.036-.572-.076-1.145-.13-1.714-.025-.259-.057-.516-.086-.774-.061-.544-.128-1.088-.208-1.629-.038-.254-.079-.508-.12-.761-.047-.292-.086-.586-.138-.877h139.324c-.053.291-.091.584-.138.876-.041.253-.083.507-.12.761-.08.543-.147 1.088-.208 1.634-.029.255-.061.51-.086.766-.055.571-.096 1.146-.131 1.72-.014.233-.036.462-.046.695-.039.804-.061 1.611-.061 2.421 0 .809.023 1.616.061 2.42.012.236.032.469.047.704.036.571.076 1.141.13 1.71.026.262.058.522.087.781.06.539.127 1.078.206 1.614.039.262.081.523.124.784.046.287.084.576.136.861h-30.259c-4.466 0-8.084 3.618-8.084 8.084 0 4.466 3.618 8.084 8.084 8.084h36.271c4.313 7.351 10.459 13.497 17.811 17.81v29.568c-9.594 1.943-16.84 10.44-16.84 20.599v56.313c0 11.589 9.429 21.019 21.019 21.019h12.781v25.067c0 4.466 3.618 8.084 8.084 8.084 4.466 0 8.084-3.618 8.084-8.084V303.1h12.778c11.589 0 21.019-9.429 21.019-21.019v-56.313c0-10.159-7.246-18.655-16.84-20.599v-29.566c14.71-8.63 24.615-24.602 24.615-42.854 0-27.382-22.276-49.658-49.656-49.658-18.252 0-34.224 9.905-42.855 24.615H186.793c-4.313-7.351-10.459-13.497-17.81-17.81v-43.16h319.649c12.885 0 23.369-10.484 23.369-23.369C512.001 10.483 501.517 0 488.632 0H381.46c-4.466 0-8.084 3.618-8.084 8.084 0 4.466 3.618 8.084 8.084 8.084h107.172c3.971 0 7.2 3.229 7.2 7.198 0 3.971-3.229 7.2-7.2 7.2H23.369c-3.971 0-7.2-3.229-7.2-7.2 0-3.969 3.229-7.198 7.2-7.198h329.483c4.466 0 8.084-3.618 8.084-8.084 0-4.466-3.618-8.084-8.084-8.084H23.369C10.484.002 0 10.485 0 23.369c0 12.885 10.484 23.367 23.369 23.367ZM406.71 282.087c0 2.674-2.176 4.851-4.851 4.851h-41.728c-2.674 0-4.85-2.176-4.85-4.851v-18.863h51.429zm-.001-56.313v21.282H355.28v-21.282c0-2.674 2.176-4.851 4.85-4.851h41.728c2.675 0 4.851 2.177 4.851 4.851zm-34.589-21.019V181.62c.287.052.578.089.867.137.26.042.521.085.783.123.523.077 1.048.141 1.574.201.282.032.565.067.848.095.516.05 1.036.085 1.554.119.289.018.576.044.866.057.66.031 1.319.045 1.98.051.136.001.269.011.405.011.144 0 .287-.01.43-.011.65-.005 1.3-.019 1.949-.05.3-.014.596-.04.895-.059.508-.033 1.015-.068 1.521-.115.294-.028.586-.065.878-.098.515-.058 1.028-.122 1.54-.196.272-.04.541-.084.811-.128.283-.047.568-.084.849-.135v23.135h-17.75zm-24.568-73.736c.016-.309.046-.614.07-.921.021-.264.035-.528.061-.791.036-.35.086-.696.134-1.044.029-.217.052-.434.085-.65.053-.341.119-.677.181-1.014.042-.222.078-.446.124-.667.065-.312.141-.619.214-.927.059-.248.114-.497.179-.744.072-.275.154-.545.233-.818.082-.281.162-.563.251-.842.077-.238.16-.474.241-.71.107-.309.214-.619.33-.926.081-.216.167-.428.253-.64.127-.317.258-.634.396-.949 5.175-11.824 16.981-20.11 30.692-20.11 18.465 0 33.488 15.024 33.488 33.49 0 13.701-8.275 25.501-20.086 30.681-.333.146-.667.283-1.004.418-.195.079-.39.157-.589.233-.327.124-.654.238-.983.35-.219.074-.435.152-.656.222-.299.096-.6.182-.902.269-.253.073-.504.149-.76.217-.267.07-.537.13-.805.194-.29.068-.578.14-.87.202-.238.05-.479.089-.719.134-.321.059-.641.123-.966.174-.232.036-.467.061-.7.092-.331.044-.661.093-.995.127-.28.028-.562.044-.842.066-.291.023-.58.052-.873.067-.577.029-1.157.045-1.738.045s-1.161-.015-1.738-.045c-.304-.015-.604-.045-.904-.069-.269-.022-.54-.036-.81-.064-.348-.036-.692-.085-1.037-.133-.219-.029-.439-.053-.656-.086-.34-.053-.674-.117-1.01-.18-.224-.042-.45-.079-.673-.125-.307-.064-.61-.139-.914-.211-.253-.06-.508-.116-.76-.183-.269-.071-.536-.151-.802-.229-.287-.083-.573-.165-.857-.255-.234-.074-.466-.156-.697-.236-.315-.109-.628-.218-.941-.335-.21-.08-.419-.164-.627-.248-.322-.129-.643-.262-.963-.401-7.714-3.378-13.918-9.579-17.298-17.292-.143-.328-.279-.659-.413-.99-.08-.201-.162-.399-.237-.601-.122-.321-.234-.646-.346-.97-.077-.223-.155-.444-.226-.669-.094-.294-.179-.591-.264-.886-.074-.259-.152-.516-.221-.777s-.127-.524-.19-.786c-.07-.295-.143-.589-.205-.886-.05-.236-.088-.473-.132-.71-.06-.323-.124-.647-.175-.973-.036-.23-.06-.46-.091-.691-.045-.334-.094-.667-.128-1.006-.028-.274-.043-.55-.065-.826-.023-.295-.053-.59-.068-.888-.029-.577-.045-1.157-.045-1.738s.019-1.163.049-1.739zM135.064 46.736h17.75v37.153c-.277-.051-.557-.086-.835-.133-.275-.045-.549-.089-.825-.13-.527-.077-1.055-.142-1.586-.202-.267-.03-.534-.064-.802-.089-.565-.055-1.131-.094-1.699-.129-.237-.015-.472-.036-.71-.047-.804-.039-1.61-.061-2.42-.061-.81 0-1.616.023-2.419.061-.239.012-.475.033-.714.047-.566.036-1.13.075-1.692.129-.273.027-.543.06-.814.092-.524.059-1.047.124-1.568.199-.282.041-.564.087-.845.134-.274.045-.549.08-.821.129V46.736Zm-4.515 55.332c.328-.143.659-.279.99-.412.195-.079.39-.157.587-.232.333-.126.669-.244 1.006-.359.209-.071.416-.146.626-.212.315-.101.632-.192.949-.282.238-.068.474-.14.715-.204.286-.075.575-.14.862-.208.271-.064.54-.131.814-.189.263-.055.528-.099.791-.147.299-.055.595-.113.896-.161.258-.04.518-.068.777-.102.307-.04.612-.085.922-.117.299-.03.598-.047.898-.07.273-.021.544-.049.819-.063.577-.029 1.157-.045 1.739-.045.582 0 1.161.015 1.739.045.281.014.558.043.838.064.293.023.587.039.88.069.318.033.632.079.946.121.25.033.501.06.751.099.31.048.617.109.924.166.254.046.51.088.762.141.284.059.563.129.844.195.277.066.554.127.83.201.251.066.498.141.747.212.305.088.611.176.914.273.222.071.441.149.662.224.323.111.647.223.968.345.21.079.417.164.625.247.318.127.635.259.951.396 7.746 3.389 13.969 9.623 17.343 17.377.115.264.224.53.332.797.102.254.206.509.303.765.102.273.197.548.293.822.092.265.185.528.27.797.082.258.155.516.231.776.084.29.171.579.248.872.061.234.113.471.17.706.077.319.155.638.222.96.044.214.08.43.12.646.065.344.131.686.185 1.033.033.216.056.434.085.651.046.347.097.692.133 1.042.027.267.042.537.063.805.024.303.054.604.069.908.029.577.045 1.157.045 1.738s-.016 1.161-.045 1.738c-.015.299-.045.593-.068.889-.022.275-.037.551-.065.823-.036.342-.084.679-.129 1.018-.03.225-.054.453-.089.677-.052.336-.117.669-.18 1.002-.042.225-.079.453-.126.678-.065.312-.141.619-.215.927-.059.247-.114.495-.179.742-.073.28-.157.557-.238.835-.08.273-.156.545-.244.816-.081.254-.169.506-.257.757-.1.289-.201.578-.308.864-.092.244-.19.484-.287.725-.113.281-.229.562-.349.841-5.163 11.848-16.983 20.154-30.712 20.154-18.465 0-33.488-15.024-33.488-33.488-.004-13.707 8.277-25.511 20.095-30.688zm-17.58416 244.20348c-12.67381 0-23.019527 10.34275-23.019528 23.01758v25.75586c0 .98964.21787 1.90208.34375 2.84961h-48.96289c-23.490687 0-42.6347657 19.14302-42.6347657 42.63281v.5c0 23.4898 19.1440787 42.63282 42.6347657 42.63282h4.070312l14.347657 25.23828h-.002C61.533005 512.05013 64.887995 514 68.511719 514H455.0918c3.62297 0 6.97656-1.94953 8.76757-5.10156l14.82813-26.08399c19.67874-3.77415 34.62109-21.04445 34.62109-41.78711v-.5c.001-23.48978-19.14307-42.63281-42.63281-42.63281h-37.36719c.12581-.94783.34375-1.86035.34375-2.84961v-25.75586c0-12.67381-10.34274-23.01758-23.01757-23.01758h-56.58594c-12.67381 0-23.01953 10.34275-23.01953 23.01758v25.75586c0 .98964.21787 1.90208.34375 2.84961h-18.60547c.1258-.94783.34375-1.86035.34375-2.84961v-25.75586c0-12.67381-10.3447-23.01758-23.01953-23.01758h-56.58399c-12.67381 0-23.01953 10.34275-23.01953 23.01758v25.75586c0 .98968.21786 1.90204.34375 2.84961h-18.60547c.1258-.94783.34375-1.86035.34375-2.84961v-25.75586c0-12.67381-10.34274-23.01758-23.01758-23.01758zm0 4h56.58789c10.50515 0 19.01758 8.51342 19.01758 19.01758v25.75586c0 1.49975-.19188 2.95975-.53125 4.38672a2.0002019 2.0002019 0 0 0 1.94531 2.46289h23.08985a2.0002019 2.0002019 0 0 0 1.94726-2.46094c-.33881-1.42851-.5332-2.88972-.5332-4.38867v-25.75586c0-10.50514 8.51537-19.01758 19.01953-19.01758h56.58399c10.50514 0 19.01953 8.51342 19.01953 19.01758v25.75586c0 1.49975-.19384 2.95975-.53321 4.38672a2.0002019 2.0002019 0 0 0 1.94532 2.46289h23.09375a2.0002019 2.0002019 0 0 0 1.94531-2.46094c-.33882-1.42851-.5332-2.88972-.5332-4.38867v-25.75586c0-10.50514 8.51536-19.01758 19.01953-19.01758h56.58594c10.50514 0 19.01757 8.51342 19.01757 19.01758v25.75586c0 1.49975-.19188 2.95975-.53125 4.38672a2.0002019 2.0002019 0 0 0 1.94532 2.46289h39.60937c21.32022 0 38.63377 17.31264 38.63281 38.63281v.5c0 19.15329-13.99489 35.06083-32.27734 38.10157a2.0002019 2.0002019 0 0 0-1.41016.98437l-15.23828 26.80859C459.29983 508.82783 457.28282 510 455.0918 510H68.511719c-2.192271 0-4.207836-1.17182-5.291016-3.07813l-14.921875-26.25a2.0002019 2.0002019 0 0 0-1.738281-1.01171h-5.234375c-21.321268 0-38.6347657-17.31266-38.6347657-38.63282v-.5c0-21.32016 17.3134977-38.63281 38.6347657-38.63281h51.207031a2.0002019 2.0002019 0 0 0 1.945313-2.46094c-.338816-1.42851-.533204-2.88972-.533204-4.38867v-25.75586c0-10.50514 8.515368-19.01758 19.019528-19.01758zm.004 12.16797c-3.75951 0-6.85156 3.09255-6.85156 6.85157v25.7539c0 3.75971 3.09245 6.85156 6.85156 6.85156h56.58594c3.7601 0 6.85156-3.09254 6.85156-6.85156v-25.7539c0-3.76011-3.09255-6.85157-6.85156-6.85157zm120.54102 0c-3.76011 0-6.85157 3.09255-6.85157 6.85157v25.7539c0 3.7602 3.09246 6.85156 6.85157 6.85156h56.58398c3.76011 0 6.85156-3.09254 6.85156-6.85156v-25.7539c0-3.76011-3.09255-6.85157-6.85156-6.85157zm120.54101 0c-3.76011 0-6.85156 3.09255-6.85156 6.85157v25.7539c0 3.7602 3.09245 6.85156 6.85156 6.85156h56.58399c3.7601 0 6.85156-3.09254 6.85156-6.85156v-25.7539c0-3.76011-3.09255-6.85157-6.85156-6.85157zm-241.08203 4h56.58594c1.58898 0 2.85156 1.26168 2.85156 2.85157v25.7539c0 1.58898-1.26167 2.85156-2.85156 2.85156h-56.58594c-1.59089 0-2.85156-1.25927-2.85156-2.85156v-25.7539c0-1.58899 1.26308-2.85157 2.85156-2.85157zm120.54102 0h56.58398c1.58898 0 2.85156 1.26168 2.85156 2.85157v25.7539c0 1.58898-1.26167 2.85156-2.85156 2.85156h-56.58398c-1.59089 0-2.85157-1.25977-2.85157-2.85156v-25.7539c0-1.58899 1.26168-2.85157 2.85157-2.85157zm120.54101 0h56.58399c1.58898 0 2.85156 1.26168 2.85156 2.85157v25.7539c0 1.58898-1.26168 2.85156-2.85156 2.85156h-56.58399c-1.59088 0-2.85156-1.25977-2.85156-2.85156v-25.7539c0-1.58899 1.26167-2.85157 2.85156-2.85157zM41.326172 414.0625c-14.575561 0-26.466797 11.88908-26.466797 26.46484v.5c0 14.57474 11.890217 26.46485 26.466797 26.46485H401.44531c3.38584 0 6.08399 2.69815 6.08399 6.08398 0 3.38584-2.69815 6.08399-6.08399 6.08399H65.160156a2.0002019 2.0002019 0 0 0-1.738281 2.98828l8.054687 14.16992a2.0002019 2.0002019 0 0 0 1.738282 1.01172H450.38867a2.0002019 2.0002019 0 0 0 1.73828-1.01172l8.05664-14.16992a2.0002019 2.0002019 0 0 0-1.74023-2.98828h-30.05274c-3.38553 0-6.08398-2.6994-6.08398-6.08399s2.69845-6.08398 6.08398-6.08398h42.28516c14.57464 0 26.46485-11.88919 26.46484-26.46485v-.5c.00001-14.57464-11.88918-26.46484-26.46484-26.46484H112.96875zm0 4H470.67578c12.40631 0 22.46485 10.05951 22.46484 22.46484v.5c.00001 12.40632-10.05951 22.46485-22.46484 22.46485h-42.28516c-5.54645 0-10.08398 4.53858-10.08398 10.08398 0 5.5454 4.53753 10.08399 10.08398 10.08399h26.61524l-5.78125 10.16992H74.378906l-5.78125-10.16992H401.44531c5.54616 0 10.08399-4.53783 10.08399-10.08399 0-5.54615-4.53783-10.08398-10.08399-10.08398H41.326172c-12.407393 0-22.466797-10.05961-22.466797-22.46485v-.5c0-12.40621 10.060385-22.46484 22.466797-22.46484zM470.676 399.895h-39.61c.371-1.56.587-3.179.587-4.851V369.29c0-11.589-9.429-21.019-21.019-21.019h-56.585c-11.589 0-21.019 9.429-21.019 21.019v25.754c0 1.672.217 3.291.587 4.851h-23.093c.371-1.56.587-3.179.587-4.851V369.29c0-11.589-9.429-21.019-21.019-21.019h-56.585c-11.589 0-21.019 9.429-21.019 21.019v25.754c0 1.672.217 3.291.587 4.851h-23.091c.371-1.56.587-3.179.587-4.851V369.29c0-11.589-9.429-21.019-21.019-21.019h-56.587c-11.589 0-21.019 9.429-21.019 21.019v25.754c0 1.672.217 3.291.587 4.851H41.326c-22.406 0-40.635 18.228-40.635 40.633v.499c0 22.405 18.229 40.633 40.635 40.633h5.235l14.921 26.25c1.437 2.529 4.121 4.09 7.029 4.09h386.581c2.907 0 5.592-1.561 7.029-4.09l15.239-26.809c19.234-3.199 33.948-19.946 33.948-40.074v-.499c.001-22.405-18.227-40.633-40.632-40.633zm-121.477-30.604c0-2.674 2.176-4.851 4.851-4.851h56.585c2.674 0 4.851 2.176 4.851 4.851v25.754c0 2.674-2.176 4.851-4.851 4.851H354.05c-2.675 0-4.851-2.175-4.851-4.851zm-120.541 0c0-2.674 2.176-4.851 4.851-4.851h56.585c2.674 0 4.851 2.176 4.851 4.851v25.754c0 2.674-2.176 4.851-4.851 4.851h-56.585c-2.675 0-4.851-2.175-4.851-4.851zm-120.54 0c0-2.674 2.176-4.851 4.85-4.851h56.587c2.674 0 4.851 2.176 4.851 4.851v25.754c0 2.674-2.176 4.851-4.851 4.851h-56.587c-2.675 0-4.85-2.175-4.85-4.851zm387.023 71.736c0 13.491-10.975 24.465-24.465 24.465h-42.285c-4.466 0-8.084 3.619-8.084 8.084s3.618 8.084 8.084 8.084h30.053l-8.055 14.17H73.215l-8.055-14.17h336.286c4.466 0 8.084-3.618 8.084-8.084 0-4.466-3.618-8.084-8.084-8.084H41.326c-13.492 0-24.467-10.975-24.467-24.465v-.499c0-13.491 10.976-24.465 24.467-24.465h429.35c13.491 0 24.465 10.975 24.465 24.465z" transform="translate(136.55013 85.737879) scale(.5252)" class="UnoptimicedTransforms"/><path d="m583.00781 1817.2586-17.125-38.5-17.125 38.5zm16.75 37.5h-67.75l-5.5 12.5h-41.125l80.5-180.625 80.5 180.625h-41.125zm59.875-50v-100h37.5v100q0 25 25 25h12.5q25 0 25-25v-100h37.5v100q0 62.5-62.5 62.5h-12.5q-62.5 0-62.5-62.5zm250-62.5v125h-37.5v-125h-50v-37.5h137.5v37.5zm62.5 25q0-62.5 62.49999-62.5h12.5q62.5 0 62.5 62.5v37.5q0 62.5-62.5 62.5h-12.5q-62.49999 0-62.49999-62.5zm62.49999-25q-25 0-25 25v37.5q0 25 25 25h12.5q25 0 25-25v-37.5q0-25-25-25zm137.5 45.5v79.5h-37.5v-168.5l75 73.375 75-73.375v168.5h-37.5v-79.5l-37.5 36.75zm223.375 29.5-17.125-38.5-17.125 38.5zm16.75 37.5h-67.75l-5.5 12.5h-41.125l80.5-180.625 80.5 180.625h-41.125zm122.375-112.5v125h-37.5v-125h-50v-37.5h137.5v37.5zm112.5 87.5h87.5v37.5h-125v-162.5h125v37.5h-87.5v25h75v37.5h-75zm187.5-125q62.5 0 62.5 62.5v37.5q0 62.5-62.5 62.5h-75v-162.5zm25 62.5q0-25-25-25h-37.5v87.5h37.5q25 0 25-25z" style="font-size:256px;font-family:Hardigan;-inkscape-font-specification:Hardigan;text-align:center;text-anchor:middle;white-space:pre;shape-inside:url(#a);fill:#fff;fill-opacity:1;stroke-width:8;stroke-linecap:round;stroke-linejoin:round" transform="translate(-44.264526 3.9839866) scale(.26465)"/></svg>