<svg width="2048" height="2048" viewBox="0 0 542 542" xmlns="http://www.w3.org/2000/svg"><path fill-rule="evenodd" d="M512 0A512 512 0 0 0 0 512v1024a512 512 0 0 0 512 512h1536V0Z" style="font-variation-settings:normal;-inkscape-stroke:none" transform="matrix(.26465 0 0 .26465 -.00001322 -.00001322)"/><path fill="#00c080" d="M512 128a384 384 0 0 0-384 384v1024h1792V128Z" color="#000" style="-inkscape-stroke:none" transform="matrix(.26465 0 0 .26465 -.00001322 -.00001322)"/><path d="M30 156.55A13.5 13.5 0 0 0 16.55 170 13.5 13.5 0 0 0 30 183.45h6.55v145.1H30A13.5 13.5 0 0 0 16.55 342v26.55H10A13.5 13.5 0 0 0-3.45 382v50A13.5 13.5 0 0 0 10 445.45h422A13.5 13.5 0 0 0 445.45 432v-50A13.5 13.5 0 0 0 432 368.55h-6.55V342A13.5 13.5 0 0 0 412 328.55h-6.55v-145.1H412A13.5 13.5 0 0 0 425.45 170 13.5 13.5 0 0 0 412 156.55zm-3.89 4.24zm389.78 0zM30 163.45h382a6.49 6.49 0 0 1 6.55 6.55 6.49 6.49 0 0 1-6.55 6.55h-10a3.48 3.48 0 0 0-3.45 3.45v152a3.48 3.48 0 0 0 3.45 3.45h10a6.49 6.49 0 0 1 6.55 6.55v30a3.48 3.48 0 0 0 3.45 3.45h10a6.49 6.49 0 0 1 6.55 6.55v50a6.49 6.49 0 0 1-6.55 6.55H10A6.49 6.49 0 0 1 3.45 432v-50a6.49 6.49 0 0 1 6.55-6.55h10a3.48 3.48 0 0 0 3.45-3.45v-30a6.49 6.49 0 0 1 6.55-6.55h10a3.48 3.48 0 0 0 3.45-3.45V180a3.48 3.48 0 0 0-3.45-3.45H30a6.49 6.49 0 0 1-6.55-6.55 6.49 6.49 0 0 1 6.55-6.55zm-9.21 10.44zm400.42 0zM60 176.55a3.48 3.48 0 0 0-3.45 3.45v152a3.48 3.48 0 0 0 3.45 3.45h20a3.48 3.48 0 0 0 3.45-3.45V180a3.48 3.48 0 0 0-3.45-3.45Zm40 0a3.48 3.48 0 0 0-3.45 3.45v152a3.48 3.48 0 0 0 3.45 3.45h39.33a3.48 3.48 0 0 0 3.46-3.45V180a3.48 3.48 0 0 0-3.46-3.45zm59.33 0a3.48 3.48 0 0 0-3.45 3.45v152a3.48 3.48 0 0 0 3.45 3.45h20a3.48 3.48 0 0 0 3.46-3.45V180a3.48 3.48 0 0 0-3.46-3.45zm40 0a3.48 3.48 0 0 0-3.45 3.45v152a3.48 3.48 0 0 0 3.45 3.45h43.34a3.48 3.48 0 0 0 3.45-3.45V180a3.48 3.48 0 0 0-3.45-3.45zm63.34 0a3.48 3.48 0 0 0-3.46 3.45v152a3.48 3.48 0 0 0 3.46 3.45h20a3.48 3.48 0 0 0 3.45-3.45V180a3.48 3.48 0 0 0-3.45-3.45zm40 0a3.48 3.48 0 0 0-3.46 3.45v152a3.48 3.48 0 0 0 3.46 3.45H342a3.48 3.48 0 0 0 3.45-3.45V180a3.48 3.48 0 0 0-3.45-3.45zm59.33 0a3.48 3.48 0 0 0-3.45 3.45v152a3.48 3.48 0 0 0 3.45 3.45h20a3.48 3.48 0 0 0 3.45-3.45V180a3.48 3.48 0 0 0-3.45-3.45zM38.27 180H40v1.73a1.73 1.73 0 0 0-1.73-1.73ZM60 180h1.73a1.73 1.73 0 0 0-1.73 1.73Zm18.27 0H80v1.73a1.73 1.73 0 0 0-1.73-1.73Zm21.73 0h1.73a1.73 1.73 0 0 0-1.73 1.73Zm37.6 0h1.73v1.73a1.73 1.73 0 0 0-1.72-1.73Zm21.73 0h1.73a1.73 1.73 0 0 0-1.73 1.73zm18.28 0h1.72v1.73a1.73 1.73 0 0 0-1.72-1.73Zm21.72 0h1.73a1.73 1.73 0 0 0-1.73 1.73zm41.61 0h1.73v1.73a1.73 1.73 0 0 0-1.73-1.73Zm21.73 0h1.72a1.73 1.73 0 0 0-1.72 1.73zm18.27 0h1.73v1.73a1.73 1.73 0 0 0-1.73-1.73Zm21.73 0h1.72a1.73 1.73 0 0 0-1.72 1.73zm37.6 0H342v1.73a1.73 1.73 0 0 0-1.73-1.73Zm21.73 0h1.73a1.73 1.73 0 0 0-1.73 1.73Zm18.27 0H382v1.73a1.73 1.73 0 0 0-1.73-1.73Zm21.73 0h1.73a1.73 1.73 0 0 0-1.73 1.73Zm-338.55 3.45h13.1v145.1h-13.1zm40 0h32.43v145.1h-32.43zm59.34 0h13.09v145.1h-13.1zm40 0h36.42v145.1H202.8zm63.33 0h13.1v145.1h-13.1zm40 0h32.43v145.1h-32.43zm59.33 0h13.1v145.1h-13.1ZM40 330.27V332h-1.73a1.73 1.73 0 0 0 1.73-1.73Zm20 0a1.73 1.73 0 0 0 1.73 1.73H60Zm20 0V332h-1.73a1.73 1.73 0 0 0 1.73-1.73Zm20 0a1.73 1.73 0 0 0 1.73 1.73H100Zm39.33 0V332h-1.72a1.73 1.73 0 0 0 1.72-1.73zm20 0a1.73 1.73 0 0 0 1.73 1.73h-1.73zm20 0V332h-1.72a1.73 1.73 0 0 0 1.72-1.73zm20 0a1.73 1.73 0 0 0 1.73 1.73h-1.73zm43.34 0V332h-1.73a1.73 1.73 0 0 0 1.73-1.73zm20 0a1.73 1.73 0 0 0 1.72 1.73h-1.72zm20 0V332h-1.73a1.73 1.73 0 0 0 1.73-1.73zm20 0a1.73 1.73 0 0 0 1.72 1.73h-1.72zm39.33 0V332h-1.73a1.73 1.73 0 0 0 1.73-1.73Zm20 0a1.73 1.73 0 0 0 1.73 1.73H362Zm20 0V332h-1.73a1.73 1.73 0 0 0 1.73-1.73Zm20 0a1.73 1.73 0 0 0 1.73 1.73H402ZM26.11 332.8zm389.78 0zM40 348.55a3.48 3.48 0 0 0-3.45 3.45v20a3.48 3.48 0 0 0 3.45 3.45h60.61a6.49 6.49 0 0 1 6.55 6.55 6.49 6.49 0 0 1-6.55 6.55H20a3.48 3.48 0 0 0-3.45 3.45v30a3.48 3.48 0 0 0 3.45 3.45h402a3.48 3.48 0 0 0 3.45-3.45v-30a3.48 3.48 0 0 0-3.45-3.45H134.72a6.49 6.49 0 0 1-6.54-6.55 6.49 6.49 0 0 1 6.54-6.55H402a3.48 3.48 0 0 0 3.45-3.45v-20a3.48 3.48 0 0 0-3.45-3.45zm0 3.45h1.73a1.73 1.73 0 0 0-1.73 1.73Zm360.27 0H402v1.73a1.73 1.73 0 0 0-1.73-1.73Zm-356.82 3.45h355.1v13.1H134.72A13.5 13.5 0 0 0 121.27 382a13.5 13.5 0 0 0 13.45 13.45h283.83v23.1H23.45v-23.1h77.16A13.5 13.5 0 0 0 114.06 382a13.5 13.5 0 0 0-13.45-13.45H43.45ZM20 370.27V372h-1.73a1.73 1.73 0 0 0 1.73-1.73Zm20 0a1.73 1.73 0 0 0 1.73 1.73H40Zm362 0V372h-1.73a1.73 1.73 0 0 0 1.73-1.73Zm20 0a1.73 1.73 0 0 0 1.73 1.73H422ZM6.11 372.8zm98.39 0zm26.33 0zm305.06 0zm-326.07 13.1zm15.69 0zM20 392h1.73a1.73 1.73 0 0 0-1.73 1.73Zm400.27 0H422v1.73a1.73 1.73 0 0 0-1.73-1.73ZM20 420.27a1.73 1.73 0 0 0 1.73 1.73H20Zm402 0V422h-1.73a1.73 1.73 0 0 0 1.73-1.73ZM.79 435.9zm440.42 0zM30 158.27A11.75 11.75 0 0 0 18.27 170c0 6.46 5.27 11.73 11.73 11.73h8.27v148.54H30A11.75 11.75 0 0 0 18.27 342v28.27H10A11.75 11.75 0 0 0-1.73 382v50c0 6.46 5.27 11.73 11.73 11.73h422c6.46 0 11.73-5.27 11.73-11.73v-50c0-6.46-5.27-11.73-11.73-11.73h-8.27V342c0-6.46-5.27-11.73-11.73-11.73h-8.27V181.73H412c6.46 0 11.73-5.27 11.73-11.73 0-6.46-5.27-11.73-11.73-11.73zm0 3.46h382a8.25 8.25 0 0 1 8.27 8.27 8.25 8.25 0 0 1-8.27 8.27h-10a1.73 1.73 0 0 0-1.73 1.73v152a1.73 1.73 0 0 0 1.73 1.73h10a8.25 8.25 0 0 1 8.27 8.27v30a1.73 1.73 0 0 0 1.73 1.73h10a8.25 8.25 0 0 1 8.27 8.27v50a8.25 8.25 0 0 1-8.27 8.27H10A8.25 8.25 0 0 1 1.73 432v-50a8.25 8.25 0 0 1 8.27-8.27h10a1.73 1.73 0 0 0 1.73-1.73v-30a8.25 8.25 0 0 1 8.27-8.27h10a1.73 1.73 0 0 0 1.73-1.73V180a1.73 1.73 0 0 0-1.73-1.73H30a8.25 8.25 0 0 1-8.27-8.27 8.25 8.25 0 0 1 8.27-8.27zm30 16.54a1.73 1.73 0 0 0-1.73 1.73v152a1.73 1.73 0 0 0 1.73 1.73h20a1.73 1.73 0 0 0 1.73-1.73V180a1.73 1.73 0 0 0-1.73-1.73Zm40 0a1.73 1.73 0 0 0-1.73 1.73v152a1.73 1.73 0 0 0 1.73 1.73h39.33a1.73 1.73 0 0 0 1.73-1.73V180a1.73 1.73 0 0 0-1.73-1.73zm59.33 0a1.73 1.73 0 0 0-1.72 1.73v152a1.73 1.73 0 0 0 1.72 1.73h20a1.73 1.73 0 0 0 1.73-1.73V180a1.73 1.73 0 0 0-1.73-1.73zm40 0a1.73 1.73 0 0 0-1.72 1.73v152a1.73 1.73 0 0 0 1.72 1.73h43.34a1.73 1.73 0 0 0 1.72-1.73V180a1.73 1.73 0 0 0-1.72-1.73zm63.34 0a1.73 1.73 0 0 0-1.73 1.73v152a1.73 1.73 0 0 0 1.73 1.73h20a1.73 1.73 0 0 0 1.72-1.73V180a1.73 1.73 0 0 0-1.72-1.73zm40 0a1.73 1.73 0 0 0-1.73 1.73v152a1.73 1.73 0 0 0 1.73 1.73H342a1.73 1.73 0 0 0 1.73-1.73V180a1.73 1.73 0 0 0-1.73-1.73Zm59.33 0a1.73 1.73 0 0 0-1.73 1.73v152a1.73 1.73 0 0 0 1.73 1.73h20a1.73 1.73 0 0 0 1.73-1.73V180a1.73 1.73 0 0 0-1.73-1.73Zm-300.27 3.46h16.54v148.54H61.73Zm40 0h35.88v148.54h-35.88zm59.33 0h16.55v148.54h-16.55zm40 0h39.88v148.54h-39.88zm63.33 0h16.55v148.54H264.4zm40 0h35.88v148.54H304.4zm59.34 0h16.54v148.54h-16.54ZM40 350.27a1.73 1.73 0 0 0-1.73 1.73v20a1.73 1.73 0 0 0 1.73 1.73h60.61a8.25 8.25 0 0 1 8.27 8.27 8.25 8.25 0 0 1-8.27 8.27H20a1.73 1.73 0 0 0-1.73 1.73v30a1.73 1.73 0 0 0 1.73 1.73h402a1.73 1.73 0 0 0 1.73-1.73v-30a1.73 1.73 0 0 0-1.73-1.73H134.72a8.25 8.25 0 0 1-8.27-8.27 8.25 8.25 0 0 1 8.27-8.27H402a1.73 1.73 0 0 0 1.73-1.73v-20a1.73 1.73 0 0 0-1.73-1.73Zm1.73 3.46h358.54v16.54H134.72A11.75 11.75 0 0 0 123 382c0 6.46 5.27 11.73 11.72 11.73h285.55v26.54H21.73v-26.54h78.88c6.46 0 11.73-5.27 11.73-11.73 0-6.46-5.27-11.73-11.73-11.73H41.73ZM30 158.27A11.75 11.75 0 0 0 18.27 170c0 6.46 5.27 11.73 11.73 11.73h8.27v148.54H30A11.75 11.75 0 0 0 18.27 342v28.27H10A11.75 11.75 0 0 0-1.73 382v50c0 6.46 5.27 11.73 11.73 11.73h422c6.46 0 11.73-5.27 11.73-11.73v-50c0-6.46-5.27-11.73-11.73-11.73h-8.27V342c0-6.46-5.27-11.73-11.73-11.73h-8.27V181.73H412c6.46 0 11.73-5.27 11.73-11.73 0-6.46-5.27-11.73-11.73-11.73zm0 3.46h382a8.25 8.25 0 0 1 8.27 8.27 8.25 8.25 0 0 1-8.27 8.27h-10a1.73 1.73 0 0 0-1.73 1.73v152a1.73 1.73 0 0 0 1.73 1.73h10a8.25 8.25 0 0 1 8.27 8.27v30a1.73 1.73 0 0 0 1.73 1.73h10a8.25 8.25 0 0 1 8.27 8.27v50a8.25 8.25 0 0 1-8.27 8.27H10A8.25 8.25 0 0 1 1.73 432v-50a8.25 8.25 0 0 1 8.27-8.27h10a1.73 1.73 0 0 0 1.73-1.73v-30a8.25 8.25 0 0 1 8.27-8.27h10a1.73 1.73 0 0 0 1.73-1.73V180a1.73 1.73 0 0 0-1.73-1.73H30a8.25 8.25 0 0 1-8.27-8.27 8.25 8.25 0 0 1 8.27-8.27zm30 16.54a1.73 1.73 0 0 0-1.73 1.73v152a1.73 1.73 0 0 0 1.73 1.73h20a1.73 1.73 0 0 0 1.73-1.73V180a1.73 1.73 0 0 0-1.73-1.73Zm40 0a1.73 1.73 0 0 0-1.73 1.73v152a1.73 1.73 0 0 0 1.73 1.73h39.33a1.73 1.73 0 0 0 1.73-1.73V180a1.73 1.73 0 0 0-1.73-1.73zm59.33 0a1.73 1.73 0 0 0-1.72 1.73v152a1.73 1.73 0 0 0 1.72 1.73h20a1.73 1.73 0 0 0 1.73-1.73V180a1.73 1.73 0 0 0-1.73-1.73zm40 0a1.73 1.73 0 0 0-1.72 1.73v152a1.73 1.73 0 0 0 1.72 1.73h43.34a1.73 1.73 0 0 0 1.72-1.73V180a1.73 1.73 0 0 0-1.72-1.73zm63.34 0a1.73 1.73 0 0 0-1.73 1.73v152a1.73 1.73 0 0 0 1.73 1.73h20a1.73 1.73 0 0 0 1.72-1.73V180a1.73 1.73 0 0 0-1.72-1.73zm40 0a1.73 1.73 0 0 0-1.73 1.73v152a1.73 1.73 0 0 0 1.73 1.73H342a1.73 1.73 0 0 0 1.73-1.73V180a1.73 1.73 0 0 0-1.73-1.73Zm59.33 0a1.73 1.73 0 0 0-1.73 1.73v152a1.73 1.73 0 0 0 1.73 1.73h20a1.73 1.73 0 0 0 1.73-1.73V180a1.73 1.73 0 0 0-1.73-1.73Zm-300.27 3.46h16.54v148.54H61.73Zm40 0h35.88v148.54h-35.88zm59.33 0h16.55v148.54h-16.55zm40 0h39.88v148.54h-39.88zm63.33 0h16.55v148.54H264.4zm40 0h35.88v148.54H304.4zm59.34 0h16.54v148.54h-16.54ZM40 350.27a1.73 1.73 0 0 0-1.73 1.73v20a1.73 1.73 0 0 0 1.73 1.73h60.61a8.25 8.25 0 0 1 8.27 8.27 8.25 8.25 0 0 1-8.27 8.27H20a1.73 1.73 0 0 0-1.73 1.73v30a1.73 1.73 0 0 0 1.73 1.73h402a1.73 1.73 0 0 0 1.73-1.73v-30a1.73 1.73 0 0 0-1.73-1.73H134.72a8.25 8.25 0 0 1-8.27-8.27 8.25 8.25 0 0 1 8.27-8.27H402a1.73 1.73 0 0 0 1.73-1.73v-20a1.73 1.73 0 0 0-1.73-1.73Zm1.73 3.46h358.54v16.54H134.72A11.75 11.75 0 0 0 123 382c0 6.46 5.27 11.73 11.72 11.73h285.55v26.54H21.73v-26.54h78.88c6.46 0 11.73-5.27 11.73-11.73 0-6.46-5.27-11.73-11.73-11.73H41.73ZM432 372h-10v-30a10 10 0 0 0-10-10h-10V180h10a10 10 0 0 0 0-20H30a10 10 0 0 0 0 20h10v152H30a10 10 0 0 0-10 10v30H10a10 10 0 0 0-10 10v50a10 10 0 0 0 10 10h422a10 10 0 0 0 10-10v-50a10 10 0 0 0-10-10zm-50-40h-20V180h20zm-79.33 0V180H342v152zm-40 0V180h20v152zm-63.34 0V180h43.34v152zm-40 0V180h20v152ZM100 332V180h39.33v152ZM60 180h20v152H60Zm362 242H20v-30h80.61a10 10 0 0 0 0-20H40v-20h362v20H134.72a10 10 0 0 0 0 20H422ZM221-3.45c-2.48 0-4.97.69-7.15 2.06l-191 120a13.48 13.48 0 0 0-5.78 15.11A13.48 13.48 0 0 0 30 143.45h382.26l.14-.02.13-.03a13.47 13.47 0 0 0 12.94-13.4c0-4.94-2.7-9.28-6.7-11.61a1.73 1.73 0 0 0-.02-.04l-.04-.02L228.16-1.39A13.45 13.45 0 0 0 221-3.45Zm-5.33 4.99-.41.26h-.5a1.73 1.73 0 0 0 .91-.26zM221 3.45c1.2 0 2.41.33 3.48 1l190.6 119.75.14.09a6.51 6.51 0 0 1 3.35 5.71 6.48 6.48 0 0 1-6.55 6.55h.07H30a6.52 6.52 0 0 1-6.3-4.73 6.52 6.52 0 0 1 2.82-7.37l191-120c1.07-.67 2.27-1 3.48-1Zm0 14.9c-.64 0-1.28.18-1.84.53l-156.28 98.2a3.52 3.52 0 0 0-1.49 3.88 3.52 3.52 0 0 0 3.32 2.5H377.3a3.52 3.52 0 0 0 3.32-2.5 3.52 3.52 0 0 0-1.49-3.89L222.84 18.88a3.45 3.45 0 0 0-1.84-.52Zm0 3.46.91.57a1.73 1.73 0 0 0-1.82 0zm0 4.08 144.3 90.66H76.7ZM69.8 116.8a1.73 1.73 0 0 0 .9 3.19h-5.99zm302.4 0 5.09 3.19h-6a1.73 1.73 0 0 0 .92-3.19zm-347.52 4.72zm394.32 1.3zm-398.67 9.54a1.73 1.73 0 0 0 .05.34v.06zm.06.4zm1.4 2.93zm390.76.96.17.08.5.38.08.13a1.73 1.73 0 0 0-.75-.59zm6.54.4zm-6.52 2.7.05.1-.16.05-.05.02-.28.05h-.05l-.06.01a1.73 1.73 0 0 0 .55-.24zm-.71.26a1.73 1.73 0 0 0-.48.41l-.12-.2.38-.17.16-.03h.06zm-.85 2.7a1.73 1.73 0 0 0 .49.62l-.23-.1-.44-.34.18-.17zm1 .73a1.73 1.73 0 0 0 .01 0s.01 0 0 0H412a1.73 1.73 0 0 0 .01 0zM221-1.72c-2.17 0-4.33.6-6.24 1.79l-191 120A11.74 11.74 0 0 0 30 141.73h382l-.21-.02c.25.03.42.02.23.02a11.73 11.73 0 0 0 5.74-21.96l.07.04L227.23.07c-1.9-1.2-4.06-1.8-6.23-1.8Zm0 3.44c1.53 0 3.05.43 4.4 1.27L416 122.74a1.73 1.73 0 0 0 .07.04 8.26 8.26 0 0 1 4.22 7.22 8.25 8.25 0 0 1-8.27 8.27c-.2 0-.04-.01.2.02a1.73 1.73 0 0 0-.22-.02H30A8.26 8.26 0 0 1 25.6 123l191-120a8.27 8.27 0 0 1 4.4-1.27Zm-.92 18.63L63.8 118.54a1.73 1.73 0 0 0 .92 3.19H377.3a1.73 1.73 0 0 0 .92-3.2L221.9 20.36a1.73 1.73 0 0 0-1.83 0zm.92 3.5 150.3 94.42H70.7Zm0-25.57c-2.17 0-4.33.6-6.24 1.79l-191 120A11.74 11.74 0 0 0 30 141.73h382l-.21-.02c.25.03.42.02.23.02a11.73 11.73 0 0 0 5.74-21.96l.07.04L227.23.07c-1.9-1.2-4.06-1.8-6.23-1.8Zm0 3.44c1.53 0 3.05.43 4.4 1.27L416 122.74a1.73 1.73 0 0 0 .07.04 8.26 8.26 0 0 1 4.22 7.22 8.25 8.25 0 0 1-8.27 8.27c-.2 0-.04-.01.2.02a1.73 1.73 0 0 0-.22-.02H30A8.26 8.26 0 0 1 25.6 123l191-120a8.27 8.27 0 0 1 4.4-1.27Zm-.92 18.63L63.8 118.54a1.73 1.73 0 0 0 .92 3.19H377.3a1.73 1.73 0 0 0 .92-3.2L221.9 20.36a1.73 1.73 0 0 0-1.83 0zm.92 3.5 150.3 94.42H70.7ZM30 140h382.02a10 10 0 0 0 4.9-18.72L226.31 1.53a10 10 0 0 0-10.64 0l-191 120A10 10 0 0 0 30 140ZM221 21.81 377.29 120H64.7Z" color="#000" style="-inkscape-stroke:none" transform="translate(136.54993 85.736967) scale(.60837)"/><g aria-label="CENTRAL" style="font-weight:700;font-size:256px;font-family:Hardigan;-inkscape-font-specification:'Hardigan Bold';text-align:center;text-anchor:middle;white-space:pre;fill:#fff;stroke-width:64;stroke-linecap:round;stroke-linejoin:round"><path d="M146.94602847 453.52471935q16.5405275 0 16.5405275 16.5405275h-9.9243165q0-6.616211-6.616211-6.616211h-3.3081055q-6.616211 0-6.616211 6.616211v9.9243165q0 6.616211 6.616211 6.616211h3.3081055q6.616211 0 6.616211-6.616211h9.9243165q0 16.5405275-16.5405275 16.5405275h-3.3081055q-16.5405275 0-16.5405275-16.5405275v-9.9243165q0-16.5405275 16.5405275-16.5405275zM180.02708347 486.60577435h23.1567385v9.9243165h-33.081055v-43.0053715h33.081055v9.9243165h-23.1567385v6.616211h19.848633v9.9243165h-19.848633zM219.72434947 473.86956817v22.66052268h-9.9243165v-46.2473149l26.464844 25.90246607v-22.66052267h9.9243165v46.24731489zM275.96214297 463.44903585v33.081055h-9.9243165v-33.081055h-13.232422v-9.9243165h36.3891605v9.9243165zM322.27561997 470.06524685q0-6.616211-6.616211-6.616211h-9.9243165v13.232422h9.9243165q6.616211 0 6.616211-6.616211zm-6.616211-16.5405275q16.5405275 0 16.5405275 16.5405275 0 12.2069093-8.99804696 15.41577163l11.04907237 11.04907237h-14.02636732l-14.48950209-14.4895021v14.4895021h-9.9243165v-43.0053715zM361.54283225 483.29766885l-4.53210453-10.18896494-4.53210453 10.18896494zm4.43286137 9.9243165h-17.9299318l-1.45556643 3.3081055H335.7065283l21.30419942-47.80212448 21.30419942 47.80212448h-10.8836671zM381.82151897 453.52471935h9.9243165v33.081055h23.1567385v9.9243165h-33.081055z"/></g></svg>