<svg width="2048" height="2048" viewBox="0 0 542 542" xmlns="http://www.w3.org/2000/svg"><defs><path id="a" d="M458.85301 1631.1052h1235.8888v318.18275H458.85301z"/></defs><path fill-rule="evenodd" d="M406 0a135 135 0 0 1 136 135v271a135 135 0 0 1-136 136H0V0Z" style="font-variation-settings:normal;-inkscape-stroke:none"/><path fill="#ffc000" d="M406 34a102 102 0 0 1 102 101v271H34V34Z" color="#000" style="-inkscape-stroke:none;fill:#ffe000;fill-opacity:1"/><path d="M429 157.01c-1-2-3-3-5-3h-15v-35c0-4-3-7-7-7h-54c-4 0-7 3-7 7v20l-26-27c-3-3-7-3-9 0l-6 5a61 61.01 0 0 0-105-4h-12c-3 0-6 3-6 7v34h-11l-5-33c-1-3-4-5-7-5h-36a6.5 6.5 0 0 0 0 13h31l5 32 21 127.02v20a24 24 0 1 0 31 28.01h120a24 24 0 1 0 1-12H205c-3-8-9-14-17-16v-15h181c3 0 5-1 6-4L430 163c1-2 0-5-1-6zm-33-32v29h-42v-29zm-86 0 29 29h-57l21-21zm-64-28c20 0 37 12 45 30l-27 27h-10v-34c0-4-3-7-7-7h-37c9-10 22-16 36-16zm-56 29h51v28h-51zm160 194.03a11.5 11.5 0 1 1 0 23 11.5 11.5 0 0 1 0-23zm-156 11a11.5 11.5 0 1 1-23 0 11.5 11.5 0 0 1 23 0zm171-51H187l-4-19.01h168a6.5 6.5 0 0 0 0-13H181l-3-18h125a6.5 6.5 0 0 0 0-13H176l-3-18.01h168a6.5 6.5 0 0 0 0-13H171l-3-20h14l1 1h219l2-1h10z"/><path d="M381 186h-12a6 6 0 0 0 0 13h12a6 6 0 0 0 0-13zm-34 31h-14a6 6 0 0 0 0 13h14a6 6 0 0 0 0-13z"/><g style="font-size:256px;font-family:Hardigan;-inkscape-font-specification:Hardigan;text-align:center;text-anchor:middle;white-space:pre;shape-inside:url(#a);fill:#200060;stroke-width:8;stroke-linecap:round;stroke-linejoin:round"><path d="M676.79785 1695.2254q62.5 0 62.5 62.5v37.5q0 62.5-62.5 62.5h-75v-162.5zm25 62.5q0-25-25-25h-37.5v87.5h37.5q25 0 25-25zm100 62.5h87.5v37.5h-125v-162.5h125v37.5h-87.5v25h75v37.5h-75zm150-42v79.5h-37.5v-168.5l75 73.375 75.00005-73.375v168.5h-37.5v-79.5l-37.50005 36.75zm223.37505 29.5-17.125-38.5-17.125 38.5zm16.75 37.5h-67.75l-5.5 12.5h-41.125l80.5-180.625 80.5 180.625h-41.125zm97.375-73.125v85.625h-37.5v-174.75l100 97.875v-85.625h37.5v174.75zm200-76.875q62.5 0 62.5 62.5v37.5q0 62.5-62.5 62.5h-75v-162.5zm25 62.5q0-25-25-25h-37.5v87.5h37.5q25 0 25-25z" style="fill:#fff" aria-label="Demand" transform="translate(-13.972878 4.6359615) scale(.26465)"/></g></svg>