<svg width="2048" height="2048" viewBox="0 0 542 542" xml:space="preserve" xmlns="http://www.w3.org/2000/svg"><path fill-rule="evenodd" d="M406 0a135 135 0 0 1 136 135v271a135 135 0 0 1-136 136H0V0Z" style="font-variation-settings:normal;-inkscape-stroke:none"/><defs><path id="a" d="M128.47232 1534.1107h1703.2304v420.79972H128.47232z"/></defs><path fill="#ffc000" d="M406 34a102 102 0 0 1 102 101v271H34V34Z" color="#000" style="fill:#00a000;fill-opacity:1"/><g style="fill:#000;stroke:none;stroke-width:2.53343"><g style="stroke:none"><g style="stroke:none"><path style="color:#000;stroke:none;stroke-width:2.53343;-inkscape-stroke:none" d="M93.218 112.357h114.805v15.08c0 23.475-19.098 42.572-42.572 42.572h-1.011c-19.779 0-36.805-13.412-41.403-32.615-.965-4.028-5.014-6.51-9.041-5.547-4.028.965-6.512 5.012-5.547 9.041 6.221 25.979 29.246 44.122 55.991 44.122h1.011c31.746 0 57.572-25.827 57.572-57.572v-15.08h13.649c4.142 0 7.5-3.358 7.5-7.5 0-4.142-3.358-7.5-7.5-7.5h-5.718V78.444c0-24.865-13.946-46.531-34.424-57.598V7.5c0-4.142-3.358-7.5-7.5-7.5-4.142 0-7.5 3.358-7.5 7.5v7.507c-5.123-1.293-10.481-1.987-16-1.987h-1.17c-5.518 0-10.877.694-16 1.987V7.5c0-4.142-3.358-7.5-7.5-7.5-4.142 0-7.5 3.358-7.5 7.5v13.346c-20.479 11.066-34.424 32.732-34.424 57.598v18.913h-5.718c-4.142 0-7.5 3.358-7.5 7.5 0 4.142 3.358 7.5 7.5 7.5zm20.718-33.913c0-16.121 7.614-30.489 19.424-39.726v2.938c0 4.142 3.358 7.5 7.5 7.5 4.142 0 7.5-3.358 7.5-7.5v-11.02c5.031-1.688 10.407-2.617 16-2.617h1.17c5.592 0 10.969.929 16 2.617v11.02c0 4.142 3.358 7.5 7.5 7.5 4.142 0 7.5-3.358 7.5-7.5v-2.938c11.811 9.237 19.424 23.604 19.424 39.726v18.913H113.936Z" transform="translate(136.5511 85.551104) scale(.82922)"/><path style="color:#000;stroke:none;-inkscape-stroke:none" d="M140.85937-1.2675781c-4.82662 0-8.76562 3.9409494-8.76562 8.7675781v12.650391C111.59573 31.54168 97.669922 53.384194 97.669922 78.443359v17.646485H93.21875c-4.826629 0-8.767578 3.940946-8.767578 8.767576s3.940949 8.76563 8.767578 8.76563H206.75586v13.81445c0 22.78796-18.51772 41.30469-41.30469 41.30469h-1.01172c-19.20634 0-35.70572-12.99838-40.16992-31.64258-1.12457-4.69405-5.87574-7.60655-10.56836-6.48438-4.69357 1.12446-7.60882 5.87365-6.48437 10.56836 6.35473 26.53748 29.90481 45.09375 57.22265 45.09375h1.01172c32.43299 0 58.83789-26.40785 58.83789-58.83984V113.625h12.38281c4.82663 0 8.76758-3.94095 8.76758-8.76758 0-4.82663-3.94095-8.765623-8.76758-8.765623h-4.45117V78.443359c0-25.058209-13.92684-46.900711-34.42383-58.292968V7.5c0-4.8266287-3.94094-8.7675781-8.76757-8.7675781S180.26367 2.6733713 180.26367 7.5v5.982422c-4.74984-1.078976-9.66306-1.728516-14.73437-1.728516h-1.16993c-5.07043 0-9.9824.649535-14.73242 1.728516V7.5c0-4.8266287-3.94095-8.7675781-8.76758-8.7675781zm0 2.5351562c3.45737 0 6.23438 2.7750589 6.23438 6.2324219v9.132812l1.57617-.398437c5.02404-1.268024 10.27767-1.947266 15.68945-1.947266h1.16993c5.4128 0 10.66732.679233 15.6914 1.947266l1.57617.398437V7.5c0-3.457363 2.77506-6.2324219 6.23243-6.2324219 3.45736 0 6.23437 2.7750589 6.23437 6.2324219v14.101562l.66406.359375c20.08126 10.852588 33.75977 32.091087 33.75977 56.482422V98.625h6.98437c3.45737 0 6.23438 2.77506 6.23438 6.23242 0 3.45736-2.77701 6.23438-6.23438 6.23438h-14.91601v16.3457c0 31.05795-25.24574 56.30664-56.30469 56.30664h-1.01172c-26.1721 0-48.67056-17.72992-54.75781-43.15039-.80555-3.36328 1.24696-6.71008 4.60938-7.51563 3.36137-.80382 6.70824 1.24939 7.51367 4.61133 4.73179 19.76176 22.28315 33.58594 42.63476 33.58594h1.01172c24.16099 0 43.83789-19.67589 43.83789-43.83789v-16.34766H93.21875c-3.457363 0-6.234375-2.77506-6.234375-6.23242 0-3.45736 2.777012-6.234373 6.234375-6.234373h6.98438V78.443359c0-24.392388 13.67757-45.630838 33.75976-56.482422l.66406-.359375V7.5c0-3.457363 2.77506-6.2324219 6.23242-6.2324219zm23.5 25.4843749c-5.73326 0-11.24622.953615-16.40234 2.683594l-.86328.289062V41.65625c0 3.457363-2.77701 6.232422-6.23438 6.232422-3.45736 0-6.23242-2.775059-6.23242-6.232422v-5.537109l-2.04687 1.601562c-12.10398 9.466934-19.91016 24.202824-19.91016 40.722656v20.179688H217.2207V78.443359c0-16.520755-7.80516-31.255731-19.91015-40.722656l-2.04688-1.601562v5.537109c0 3.457363-2.77701 6.232422-6.23437 6.232422-3.45737 0-6.23243-2.775059-6.23243-6.232422V29.724609l-.86328-.289062c-5.15616-1.729995-10.67201-2.683594-16.40429-2.683594zm0 2.533203h1.16993c5.14186 0 10.07195.865356 14.73437 2.337891V41.65625c0 4.826629 3.939 8.765625 8.76563 8.765625s8.76757-3.938996 8.76757-8.765625v-.150391c10.31248 9.017272 16.89063 22.190788 16.89063 36.9375v17.646485h-99.48437V78.443359c0-14.745964 6.57853-27.920107 16.89062-36.9375v.150391c0 4.826629 3.939 8.765625 8.76562 8.765625 4.82663 0 8.76758-3.938996 8.76758-8.765625V31.623047c4.6623-1.472506 9.58967-2.337891 14.73242-2.337891z" transform="translate(136.5511 85.551104) scale(.82922)"/></g><g style="stroke:none"><path style="color:#000;stroke:none;stroke-width:2.53343;-inkscape-stroke:none" d="M239.338 197.603H84.94c-32.003 0-58.04 26.037-58.04 58.04v61.136c0 4.142 3.358 7.5 7.5 7.5h255.478c4.142 0 7.5-3.358 7.5-7.5v-61.136c0-32.003-26.037-58.04-58.04-58.04zM41.9 255.643c0-23.732 19.308-43.04 43.04-43.04h23.306v54.901c0 4.142 3.358 7.5 7.5 7.5h92.787c4.142 0 7.5-3.358 7.5-7.5v-35.699c0-4.142-3.358-7.5-7.5-7.5-4.142 0-7.5 3.358-7.5 7.5v28.199h-77.787v-47.401h105.927v96.675H95.106v-61.472c0-4.142-3.358-7.5-7.5-7.5-4.142 0-7.5 3.358-7.5 7.5v61.472H41.9Zm240.478 53.635h-38.206v-96.406c21.465 2.41 38.206 20.672 38.206 42.77z" transform="translate(136.5511 85.551104) scale(.82922)"/><path style="color:#000;stroke:none;-inkscape-stroke:none" d="M84.939453 196.33594c-32.690016 0-59.30664 26.61662-59.306641 59.30664v61.13672c0 4.82663 3.94095 8.76562 8.767579 8.76562H289.87891c4.82662 0 8.76562-3.93899 8.76562-8.76562v-61.13672c0-32.69002-26.61662-59.30664-59.30664-59.30664H87.605469Zm0 2.5332H239.33789c31.31592 0 56.77344 25.45752 56.77344 56.77344v61.13672c0 3.45736-2.77506 6.23242-6.23242 6.23242H34.400391c-3.457363 0-6.234375-2.77506-6.234375-6.23242v-61.13672c0-31.31592 25.457518-56.77344 56.773437-56.77344zm0 12.4668c-24.419029 0-44.30664 19.88761-44.306641 44.30664v54.90234h40.740235v-62.73828c0-3.45736 2.775059-6.23437 6.232422-6.23437 3.457363 0 6.234375 2.77701 6.234375 6.23437v62.73828H230.43945v-99.20898H121.97852v49.93554h80.32031v-29.46679c0-3.45737 2.77701-6.23242 6.23437-6.23242 3.45737 0 6.23243 2.77505 6.23242 6.23242v35.69922c0 3.45736-2.77505 6.23242-6.23242 6.23242h-92.78711c-3.45736 0-6.23242-2.77506-6.23242-6.23242v-56.16797H87.605469Zm157.966797.11914v99.08984h40.73828v-54.90234c0-22.73774-17.23453-41.54828-39.33203-44.0293zm-157.966797 2.41406h22.039067v53.63477c0 4.82662 3.94095 8.76757 8.76757 8.76757h92.78711c4.82663 0 8.76563-3.94095 8.76563-8.76757v-35.69922c0-4.82663-3.939-8.76563-8.76563-8.76563s-8.76757 3.939-8.76758 8.76563v26.93164h-75.25195v-44.86719h103.39258v94.14258H96.373047v-60.20508c0-4.82663-3.94095-8.76758-8.767578-8.76758-4.826629 0-8.765625 3.94095-8.765625 8.76758v60.20508H43.166016v-52.36914c0-23.04493 18.728514-41.77344 41.773437-41.77344zm160.499997.55469c20.13401 2.97653 35.67188 20.25924 35.67188 41.21875v52.36914h-35.67188z" transform="translate(136.5511 85.551104) scale(.82922)"/></g><g style="stroke:none"><path style="color:#000;stroke:none;stroke-width:2.53343;-inkscape-stroke:none" d="M115.746 297.931h92.787c4.142 0 7.5-3.358 7.5-7.5 0-4.142-3.358-7.5-7.5-7.5h-92.787c-4.142 0-7.5 3.358-7.5 7.5 0 4.142 3.358 7.5 7.5 7.5z" transform="translate(136.5511 85.551104) scale(.82922)"/><path style="color:#000;stroke:none;-inkscape-stroke:none" d="M115.74609 281.66406c-4.82662 0-8.76757 3.94095-8.76757 8.76758 0 4.82663 3.94095 8.76563 8.76757 8.76563h92.78711c4.82663 0 8.76563-3.939 8.76563-8.76563s-3.939-8.76758-8.76563-8.76758zm0 2.53321h92.78711c3.45737 0 6.23242 2.77701 6.23242 6.23437s-2.77505 6.23242-6.23242 6.23242h-92.78711c-3.45736 0-6.23242-2.77506-6.23242-6.23242 0-3.45736 2.77506-6.23437 6.23242-6.23437z" transform="translate(136.5511 85.551104) scale(.82922)"/></g></g></g><g aria-label="Employed" transform="matrix(.26465 0 0 .26465 11.621268 30.321866)" style="font-size:256px;font-family:Hardigan;-inkscape-font-specification:Hardigan;text-align:center;text-anchor:middle;white-space:pre;shape-inside:url(#a);fill:#fff;stroke-width:8;stroke-linecap:round;stroke-linejoin:round"><path d="M405.08789 1723.2312h87.5v37.5h-125v-162.5h125v37.5h-87.5v25h75v37.5h-75zM555.08789 1681.2312v79.5h-37.5v-168.5l75 73.375 75-73.375v168.5h-37.5v-79.5l-37.5 36.75zM792.58789 1660.7312q0-25-25-25h-37.5v50h37.5q25 0 25-25zm-25-62.5q62.5 0 62.5 62.5t-62.5 62.5h-37.5v37.5h-37.5v-162.5zM855.08789 1598.2312h37.5v125h87.5v37.5h-125zM992.58789 1660.7312q0-62.5 62.50001-62.5h12.5q62.5 0 62.5 62.5v37.5q0 62.5-62.5 62.5h-12.5q-62.50001 0-62.50001-62.5zm62.50001-25q-25 0-25 25v37.5q0 25 25 25h12.5q25 0 25-25v-37.5q0-25-25-25zM1192.5879 1685.3562l-60.625-87.125h45.625l33.75 48.5 33.75-48.5h45.625l-60.625 87.125v75.375h-37.5zM1342.5879 1723.2312h87.5v37.5h-125v-162.5h125v37.5h-87.5v25h75v37.5h-75zM1530.0879 1598.2312q62.5 0 62.5 62.5v37.5q0 62.5-62.5 62.5h-75v-162.5zm25 62.5q0-25-25-25h-37.5v87.5h37.5q25 0 25-25z"/></g></svg>