<svg width="2048" height="2048" viewBox="0 0 542 542" xml:space="preserve" xmlns="http://www.w3.org/2000/svg"><path fill-rule="evenodd" d="M406 0a135 135 0 0 1 136 135v271a135 135 0 0 1-136 136H0V0Z" style="font-variation-settings:normal;-inkscape-stroke:none"/><path fill="#ffc000" d="M406 34a102 102 0 0 1 102 101v271H34V34Z" color="#000" style="fill:#0080ff;fill-opacity:1"/><path style="fill:#000;stroke:#000;stroke-width:2.10077;stroke-dasharray:none;stroke-opacity:1" d="M270.57919 354.44477c-5.9792-.0375-12.64389-.2705-14.81039-.51784-2.16651-.24733-6.53891-.93981-9.71645-1.53886-3.17755-.59904-8.61859-1.89937-12.09124-2.88961-3.47264-.99025-8.67226-2.72756-11.5547-3.8607-2.88245-1.13313-7.01342-2.896-9.17992-3.91745-2.16651-1.02147-5.61499-2.78775-7.6633-3.92504-3.72417-2.06781-3.72417-2.06781-5.52059.36436-.98802 1.33769-2.91877 3.18419-4.29055 4.10333-1.37177.91912-3.83055 1.94864-5.46394 2.2878-2.18746.45421-3.71481.46701-5.79787.0486-1.55545-.31245-3.59379-.93151-4.52966-1.3757-.93585-.44419-2.52754-1.48861-3.53708-2.32094-1.00954-.83232-2.53662-2.77934-3.39351-4.32672-1.55799-2.81343-1.55799-2.81343-1.55799-20.14918 0-17.33576 0-17.33576 1.62753-20.22504.94103-1.67057 2.69144-3.70083 4.14982-4.81324 1.38725-1.05816 3.6092-2.24015 4.93764-2.62662 1.77443-.51623 6.52672-.70269 17.90915-.70269 15.49381 0 15.49381 0 18.41745 1.37147 1.60801.7543 3.78718 2.26079 4.84259 3.34774 1.0554 1.08696 2.43203 3.03646 3.05916 4.33221.67457 1.39377 1.23861 3.78108 1.3811 5.84546.15942 2.3097-.0193 4.19998-.52863 5.59082-.42322 1.15572-.934 2.4869-1.13507 2.95818-.2924.68532.45575 1.20127 3.73706 2.57712 2.25644.94614 6.46609 2.52069 9.35477 3.499 2.88867.9783 8.20646 2.37844 11.81731 3.11142 3.61084.73299 9.57858 1.49148 13.26163 1.68556 3.68308.19407 9.7099.19407 13.39297 0 3.68305-.19408 9.71128-.9641 13.39606-1.71115 3.68477-.74707 9.22548-2.20357 12.31269-3.23669 3.0872-1.0331 7.8447-2.92143 10.5722-4.19627 2.7275-1.27483 6.99516-3.53674 9.48367-5.02642 2.48852-1.4897 6.76987-4.38553 9.51411-6.43517 2.74424-2.04963 7.47239-6.21001 10.50702-9.24528 3.03462-3.03526 7.1941-7.76443 9.2433-10.50925 2.0492-2.74483 4.9444-7.02709 6.43379-9.51613 1.48937-2.48907 3.75078-6.75763 5.02534-9.48572 1.27458-2.72807 3.1625-7.48659 4.19539-10.57444 1.0329-3.08787 2.48219-8.59901 3.22068-12.24697.82593-4.08005 1.53386-9.97463 1.83947-15.31637.41918-7.32698.68921-9.10227 1.72832-11.36285.67734-1.47354 1.86963-3.43375 2.64955-4.356.77992-.92225 2.86438-2.39973 4.63216-3.28328 2.74753-1.37325 3.79975-1.60647 7.24806-1.60647 3.44831 0 4.50053.23322 7.24806 1.60647 1.76777.88355 3.85113 2.36103 4.6297 3.28328.77856.92225 1.96746 2.8588 2.64199 4.30346 1.09415 2.34338 1.22695 3.39311 1.23153 9.73422.003 3.90916-.35768 10.03879-.80113 13.62139-.44343 3.58261-1.29456 8.77627-1.89138 11.54149-.59682 2.76521-1.90697 7.74622-2.91146 11.06891-1.00448 3.32268-2.88676 8.64161-4.18282 11.81983-1.29608 3.17821-3.66379 8.26075-5.26159 11.2945-1.59778 3.03376-4.44867 7.87989-6.3353 10.76918-1.88661 2.8893-4.98541 7.26263-6.88619 9.71853-1.90079 2.4559-6.30214 7.38708-9.78077 10.95816-3.47864 3.5711-8.68825 8.40085-11.57692 10.73279-2.88868 2.33195-7.85195 5.94834-11.02949 8.03644-3.17755 2.08809-8.25899 5.1031-11.29209 6.70004-3.03311 1.59691-8.11455 3.96414-11.2921 5.26049-3.17754 1.29634-8.49533 3.18009-11.8173 4.18609-3.32199 1.00601-8.40342 2.32392-11.2921 2.92869-2.88867.60479-8.04131 1.45501-11.4503 1.88942-3.97738.50682-10.0933.7654-17.06944.72165zm4.62251-10.83821c2.45538-.0754 6.70961-.38633 9.45385-.69084 2.74424-.30452 7.88208-1.13009 11.41742-1.83461 3.53534-.70453 9.7652-2.37544 13.84414-3.71316 4.30522-1.41192 10.86228-4.14507 15.63109-6.51544 4.51815-2.24576 10.69646-5.74285 13.72957-7.77129 3.03311-2.02846 7.76548-5.56759 10.51637-7.86472 2.7509-2.29714 7.51904-6.80431 10.59589-10.01593 3.07683-3.21161 7.25466-8.0489 9.28405-10.7495 2.02939-2.70061 4.92299-6.89834 6.43024-9.32831 1.50724-2.42995 4.34109-7.69569 6.29745-11.70163 1.95635-4.00594 4.61131-10.50684 5.89989-14.44645 1.28858-3.93962 2.82911-9.41805 3.42343-12.1743.5943-2.75624 1.44495-7.79177 1.89033-11.19008.44539-3.3983.8098-8.77773.8098-11.95429 0-5.43163-.0768-5.85234-1.28917-7.06499-.91911-.91931-1.8655-1.28943-3.29703-1.28943-1.10433 0-2.52396.36157-3.15475.80347-.63077.44191-1.39108 1.68301-1.68957 2.75797-.29848 1.07496-.5451 3.96385-.54804 6.41975-.003 2.45589-.46033 7.55833-1.01641 11.33876-.55609 3.78041-1.39306 8.39015-1.85994 10.24385-.46688 1.8537-1.68108 5.97073-2.69823 9.14896-1.01714 3.17821-3.4831 9.16266-5.4799 13.29878-1.99679 4.1361-4.96535 9.57322-6.59677 12.08248-1.63144 2.50927-4.52441 6.57168-6.42885 9.02757-1.90444 2.45589-5.95133 6.95453-8.99311 9.99696-3.04178 3.04242-7.53945 7.09019-9.99482 8.99502-2.45538 1.90484-6.51692 4.79845-9.02565 6.43023-2.50872 1.63177-7.94468 4.60096-12.0799 6.59818-4.13523 1.99722-10.11841 4.46371-13.29594 5.48107-3.17755 1.01737-7.2937 2.23183-9.147 2.6988-1.85331.46698-6.46206 1.30413-10.24167 1.86034-4.81384.7084-9.73739 1.012-16.43911 1.0137-5.84325.002-11.87398-.31875-15.49381-.8227-3.25969-.4538-7.93565-1.28722-10.39102-1.85204-2.45538-.56481-7.30895-1.96919-10.78573-3.12084-3.47676-1.15168-9.63886-3.71442-13.69354-5.69502-4.5233-2.20951-7.81415-4.1631-8.5159-5.05542-.76831-.97697-1.14372-2.18891-1.14372-3.69231 0-1.7564.29843-2.5042 1.38686-3.47511.76277-.68041 2.06267-1.86903 2.88867-2.64135 1.01945-.95322 1.50182-1.92074 1.50182-3.01234 0-1.03415-.5467-2.22042-1.53174-3.32369-1.53174-1.71561-1.53174-1.71561-15.06013-1.87275-9.56962-.11115-13.96878.0253-15.03341.4664-.82776.34295-1.85012 1.11635-2.27193 1.71868-.62696.89531-.76689 3.71418-.76689 15.44858 0 14.35346 0 14.35346 1.2678 15.62153.69729.69744 1.85356 1.41512 2.5695 1.59485.77022.19335 1.96449-.016 2.92501-.51285.89283-.46181 1.98184-1.53309 2.42003-2.38065.43819-.84753.79671-2.75289.79671-4.23411 0-2.27618.23769-2.93086 1.53525-4.22869 1.17173-1.17199 2.02001-1.53557 3.58263-1.53557 1.60725 0 3.10904.68087 6.98579 3.16718 2.71612 1.74196 7.47976 4.46742 10.5859 6.05658 3.10613 1.58916 8.31191 3.91577 11.5684 5.17025 3.25648 1.25447 8.04799 2.88118 10.6478 3.61491 2.59981.73374 6.49952 1.708 8.66603 2.165 2.16651.45702 5.59352 1.09437 7.6156 1.41634 2.02207.32198 6.749.73752 10.50427.92342 3.75527.18589 8.83672.27626 11.29209.2008zm-4.66442-50.07857c-4.51182-.0259-9.97591-.36971-12.14242-.76396-2.16649-.39425-6.0662-1.32351-8.66601-2.06504-2.59981-.74153-7.79943-2.87818-11.55471-4.74811-3.75528-1.86993-8.85236-4.92195-11.32683-6.78228-2.47446-1.86034-6.61053-5.59458-9.19124-8.29835-2.5807-2.70375-6.0475-6.93704-7.704-9.4073-1.65649-2.47025-4.18398-6.95251-5.61664-9.96059-1.43266-3.00806-3.21748-7.5936-3.96624-10.19008-.74878-2.59649-1.7074-6.70528-2.13027-9.13068-.44076-2.52811-.76884-7.71351-.76884-12.15208 0-4.43857.32808-9.62397.76884-12.15208.42287-2.4254 1.37315-6.5342 2.11173-9.13068.7386-2.59649 2.87252-7.79402 4.74206-11.5501 1.86953-3.75609 4.9209-8.85425 6.78084-11.32925 1.85993-2.47501 5.59338-6.61195 8.29656-9.19321 2.70319-2.58124 6.93557-6.04879 9.4053-7.70564 2.46973-1.65684 6.95103-4.18487 9.95847-5.61785 3.00741-1.43296 7.59198-3.21815 10.1879-3.96708 2.59593-.74894 6.70385-1.70776 9.12873-2.13072 2.52757-.44086 7.71186-.76901 12.14948-.76901 4.43762 0 9.62192.32815 12.14949.76901 2.42488.42296 6.53281 1.38178 9.12874 2.13072 2.59592.74893 7.18048 2.53412 10.1879 3.96708 3.00742 1.43298 7.48873 3.96101 9.95846 5.61785 2.46973 1.65685 6.70212 5.1244 9.4053 7.70564 2.70318 2.58126 6.43664 6.7182 8.29657 9.19321 1.85993 2.475 4.91131 7.57316 6.78084 11.32925 1.86953 3.75608 4.00345 8.95361 4.74205 11.5501.73858 2.59648 1.68886 6.70528 2.11173 9.13068.44077 2.52811.76884 7.71351.76884 12.15208 0 4.43857-.32807 9.62397-.76884 12.15208-.42287 2.4254-1.37315 6.53419-2.11173 9.13068-.7386 2.59648-2.87252 7.79403-4.74205 11.5501-1.86953 3.75609-4.92091 8.85425-6.78084 11.32925-1.85993 2.475-5.59339 6.61194-8.29657 9.19321-2.70318 2.58124-6.93557 6.04879-9.4053 7.70564-2.46973 1.65684-6.95104 4.18487-9.95846 5.61784-3.00742 1.43297-7.59198 3.21816-10.1879 3.96709-2.59593.74894-6.70386 1.70776-9.12874 2.13071-2.71895.47425-7.5532.75094-12.6122.72187zm3.08878-10.85837c1.58878-.0838 4.66127-.40885 6.82777-.72206 2.16652-.31322 5.92451-1.14397 8.35111-1.84612 2.4266-.70213 6.14649-2.07817 8.26642-3.05784 2.11993-.97968 5.92502-3.12223 8.45574-4.76124 2.9485-1.90956 6.58225-5.0021 10.11605-8.60935 3.4865-3.55895 6.5466-7.29848 8.32033-10.16764 1.54306-2.49605 3.62092-6.42457 4.61745-8.73003.99654-2.30546 2.36937-6.39334 3.05074-9.08419.68138-2.69085 1.4079-6.25238 1.61451-7.91451.37563-3.02207.37563-3.02207-1.50643-3.80862-1.03515-.4326-2.52005-.78655-3.29978-.78655-.77974 0-4.15527.74028-7.50117 1.64505-4.31312 1.16632-7.30619 1.65468-10.28518 1.67817-3.43719.0271-4.73282-.21074-7.12068-1.30707-1.60545-.73711-4.6636-2.91181-6.79587-4.83268-2.13228-1.92087-5.0603-4.08232-6.50669-4.80325-1.8717-.9329-3.48609-1.31076-5.60028-1.31076-2.21397 0-3.425.30371-4.7551 1.19245-.98154.65586-2.213 2.01514-2.7366 3.02063-.71756 1.37798-.8837 2.53968-.67466 4.71746.15254 1.58911 1.21297 5.37146 2.35653 8.40521 1.14356 3.03376 2.48178 7.50935 2.97381 9.94577.58977 2.92036.78952 5.55547.5862 7.73322-.16963 1.81687-.8208 4.49475-1.44708 5.95085-.72345 1.68207-2.24378 3.67083-4.16936 5.45395-2.02147 1.87193-4.22908 3.28787-6.62942 4.25207-1.97932.79507-8.04005 2.59398-13.46832 3.99759-5.42827 1.40359-11.27783 3.18411-12.99904 3.95672-1.72121.77259-3.12946 1.58309-3.12946 1.8011 0 .21801 2.24542 1.38136 4.98982 2.58522 2.7444 1.20386 7.29407 2.77846 10.11036 3.49911 2.8163.72065 7.36585 1.47894 10.11008 1.6851 2.74425.20615 6.28943.30615 7.8782.22224zm-40.42581-16.90568c1.7102-1.10559 4.71067-2.65339 6.66774-3.43954 1.95706-.78616 7.96183-2.56805 13.34393-3.95973s10.96753-3.03887 12.41208-3.66044c1.44453-.62155 3.30417-1.83808 4.13251-2.70339 1.39077-1.45281 1.5007-1.86221 1.43566-5.34647-.0552-2.95523-.49618-4.91197-2.03441-9.02643-1.08018-2.8893-2.42487-6.90804-2.9882-8.93055-.76127-2.73323-.96056-4.70882-.77626-7.69538.17372-2.81547.66901-4.95656 1.65476-7.15359.77375-1.72451 2.39308-4.09682 3.59851-5.27179 1.20541-1.17497 3.49158-2.78839 5.08034-3.5854 2.30315-1.15535 3.81268-1.49448 7.44708-1.67309 3.61104-.17745 5.30291.006 8.14081.88072 1.97033.60761 4.76415 1.79502 6.20849 2.63871 1.44433.84371 4.32235 3.07068 6.39558 4.94886 2.09398 1.89696 4.47511 3.56986 5.35689 3.76358 1.06558.23409 4.1325-.28828 9.33035-1.5892 6.30423-1.57782 8.39341-1.89138 11.24325-1.68742 3.50025.25048 3.50025.25048 2.79397-3.48258-.38845-2.05319-1.2043-5.38786-1.81299-7.41036-.60868-2.0225-1.8948-5.3886-2.85801-7.4802-.96321-2.0916-3.09733-5.87395-4.74252-8.40521-1.71028-2.63143-5.15599-6.76751-8.04632-9.65846-2.89032-2.89094-7.02551-6.33738-9.65639-8.04804-2.53072-1.64552-6.33581-3.79342-8.45574-4.7731-2.11993-.97967-5.95799-2.39336-8.52903-3.14151-2.57102-.74816-6.50854-1.62196-8.75001-1.94178-2.24148-.31982-4.1803-.47658-4.30851-.34836-.12818.12822.31829 1.76104.99215 3.62849.67389 1.86745 1.51968 5.15817 1.87954 7.31273.35986 2.15456.51946 5.36151.35468 7.12657-.1648 1.76506-.81912 4.598-1.45408 6.29543-.75612 2.02135-1.9893 3.91842-3.57398 5.49804-1.33073 1.32647-3.49421 2.9148-4.80774 3.52959-1.31352.6148-3.87043 1.40948-5.68203 1.76596-1.99065.39173-5.11105.5304-7.88706.35051-3.73034-.24173-4.98571-.1219-6.68222.63781-1.14894.5145-2.76692 1.73738-3.59552 2.71752-.82862.98013-2.11046 3.08224-2.84857 4.67134-1.22789 2.64364-1.36778 3.67572-1.6452 12.13867-.29801 9.09102-.33236 9.30861-2.00627 12.70953-1.05274 2.13888-2.48567 4.08012-3.75253 5.08372-1.12721.89294-3.65968 2.35601-5.62771 3.25124-1.96805.89524-6.65076 2.40827-10.40604 3.36232-6.51283 1.65459-6.82354 1.79443-6.73585 3.03144.0506.71327.93606 3.12426 1.96777 5.35774 1.03172 2.23349 3.19189 6.0392 4.80039 8.45714 1.6085 2.41796 4.81291 6.39163 7.12091 8.83039 4.19636 4.43413 4.19636 4.43413 7.3058 2.42397zm-23.72277-37.3292c.26711 0 3.18663-.68229 6.48781-1.5162 3.30119-.83389 7.36827-2.16259 9.03794-2.95264 2.31888-1.09723 3.20924-1.85171 3.77033-3.19488.50249-1.20289.73701-3.96272.74232-8.73585.005-4.28563.30651-8.24482.78216-10.2626.42592-1.80683 1.58165-4.88848 2.56829-6.84811.98663-1.95961 2.89848-4.79177 4.24853-6.29369 1.67628-1.86482 3.69661-3.34468 6.37123-4.66683 3.91656-1.93608 3.91656-1.93608 11.38222-1.9838 6.06844-.0388 7.78419-.22078 9.16765-.97248.93611-.50862 2.06634-1.48094 2.51165-2.1607.44531-.67978.94801-2.40446 1.11712-3.83265.21004-1.77381-.0338-3.94686-.76969-6.85724-.59245-2.34331-1.73527-5.60485-2.53962-7.24789-1.46245-2.98735-1.46245-2.98735-3.8428-2.69606-1.3092.16022-4.50748.9073-7.10728 1.66016-2.5998.75288-6.85405 2.39946-9.45384 3.65906-2.59981 1.2596-6.81811 3.7796-9.37397 5.6-2.55587 1.8204-6.69193 5.48228-9.19124 8.13751-2.49931 2.65522-5.80672 6.85141-7.34978 9.32489-1.54306 2.47346-3.60079 6.33933-4.5727 8.59081-.97194 2.25148-2.3912 6.33937-3.15393 9.08419-1.15391 4.1525-1.43352 6.46379-1.66504 13.76299-.15302 4.82482-.13755 9.13906.0343 9.5872.17193.44814.53115.81481.79826.81481zm-57.17578 7.35456c-3.44832 0-4.50053-.23322-7.24805-1.60647-1.76778-.88355-3.85114-2.36104-4.62971-3.28328-.77857-.92225-1.96746-2.85881-2.64198-4.30346-1.09415-2.34337-1.22696-3.39311-1.23154-9.73422-.003-3.90917.3578-10.05548.80137-13.65846.44358-3.60299 1.41044-9.26945 2.14862-12.59214.73816-3.32268 2.16107-8.58682 3.162-11.69808 1.00094-3.11124 2.76772-7.93472 3.92618-10.7188 1.15846-2.78409 3.05688-6.953 4.2187-9.26425 1.16182-2.31125 3.43045-6.35267 5.04137-8.98092 1.61094-2.62824 4.9415-7.4972 7.40124-10.81988 2.68119-3.62181 7.74724-9.31691 12.64975-14.22047 4.90252-4.90356 10.5964-9.97069 14.21744-12.65245 3.32197-2.46027 8.19235-5.79307 10.82304-7.40621 2.6307-1.61313 6.93939-4.01616 9.57488-5.340072 2.63551-1.323906 7.10081-3.324844 9.9229-4.446531 2.82211-1.121684 7.37639-2.753869 10.12063-3.627073 2.74425-.873205 7.70751-2.192771 11.02948-2.932369 3.32199-.739598 8.98724-1.707724 12.58946-2.151393 3.81486-.46986 10.72261-.804871 16.54423-.802359 5.4971.0024 12.12185.240355 14.72165.528853 2.59981.288499 7.32675 1.009716 10.50429 1.602705 3.17754.59299 8.61859 1.888363 12.09123 2.878608 3.47264.990245 8.67226 2.726147 11.5547 3.85756 2.88245 1.131412 7.24976 3.009086 9.70514 4.17261 2.45537 1.163524 5.90107 2.934951 7.65711 3.936501 3.19281 1.82101 3.19281 1.82101 4.99539-.61949.99141-1.34229 2.92494-3.192542 4.29672-4.111675 1.37178-.919133 3.83055-1.948648 5.46394-2.28781 2.18747-.454212 3.71481-.467009 5.79788-.04858 1.55544.312443 3.59378.931507 4.52964 1.375698.93587.444191 2.52757 1.488613 3.5371 2.320938 1.00953.832325 2.53661 2.779349 3.39351 4.326739 1.55799 2.81341 1.55799 2.81341 1.55799 20.14915 0 17.33576 0 17.33576-1.62754 20.22505-.94102 1.67057-2.69144 3.70083-4.14982 4.81324-1.38725 1.05816-3.60919 2.24015-4.93764 2.62662-1.77442.51623-6.52672.70269-17.90915.70269-15.49382 0-15.49382 0-18.38249-1.37257-1.58877-.75491-3.77107-2.26789-4.84954-3.36216-1.07848-1.09426-2.47086-3.04328-3.09415-4.33111-.66776-1.37972-1.2322-3.77488-1.37411-5.83104-.15943-2.3097.0193-4.19999.52863-5.59082.42321-1.15572.93399-2.4869 1.13506-2.95818.2924-.68533-.45575-1.20126-3.73705-2.57712-2.25645-.94614-6.4661-2.52069-9.35478-3.499-2.88867-.9783-8.20646-2.37844-11.8173-3.11143-3.61084-.73297-9.63768-1.49843-13.39296-1.701-3.75527-.20257-9.81164-.19592-13.45859.0148-3.64696.21071-9.55561.97673-13.13035 1.70229-3.57473.72555-9.09932 2.1836-12.27687 3.24011-3.17754 1.0565-8.37715 3.18337-11.5547 4.72637-3.17754 1.54301-7.52957 3.77131-9.67118 4.95181-3.07995 1.69773-4.23262 2.07877-5.51474 1.82302-.8915-.17782-2.27086-1.01923-3.06526-1.86977-.89267-.95579-1.44432-2.13214-1.44432-3.07992 0-.84343.22846-2.13454.5077-2.86915.27924-.73461 1.63823-2.05102 3.01998-2.92538 1.38174-.87435 5.23024-2.97568 8.55223-4.6696 3.32198-1.69392 8.28524-3.9313 11.02948-4.97195 2.74425-1.04064 7.11664-2.50246 9.71645-3.24849 2.59981-.74602 7.44491-1.84891 10.76689-2.45086 4.33484-.78548 9.11403-1.16557 16.92915-1.34635 6.59123-.15248 12.91164-.0133 16.01324.35253 2.81823.33245 7.49013 1.08903 10.38197 1.68131 2.89185.59227 8.44858 2.116 12.34829 3.38604 3.89971 1.27003 10.41633 3.93634 14.48137 5.92511 4.53002 2.21627 7.83373 4.17893 8.53473 5.0703.75136.95542 1.14519 2.19594 1.14797 3.61612.004 1.94834-.2814 2.4264-2.88868 4.84188-2.32111 2.15037-2.89292 3.00535-2.89292 4.32566 0 1.07549.53062 2.23988 1.53168 3.36114 1.53167 1.7156 1.53167 1.7156 14.31207 1.87749 7.02922.089 13.57493.0143 14.54603-.16614.97109-.18042 2.33008-.89262 3.01997-1.58267 1.25435-1.25461 1.25435-1.25461 1.25435-15.49683 0-8.76357-.20802-14.63099-.54077-15.25289-.29744-.55587-1.26008-1.38271-2.13919-1.83742-.97707-.50537-2.17035-.7011-3.06977-.50351-.80923.17777-2.00777.89436-2.66343 1.59242-.91204.97104-1.27308 2.15307-1.53689 5.03172-.29604 3.23051-.5494 3.93853-1.79183 5.00747-.96828.83306-2.10135 1.24494-3.42473 1.24494-1.52205 0-3.11553-.72972-6.9161-3.16719-2.71613-1.74195-7.47977-4.4674-10.58591-6.05658-3.10613-1.58915-8.31191-3.91577-11.56839-5.17025-3.2565-1.25446-8.048-2.87961-10.64781-3.61142-2.59981-.73181-6.38134-1.693806-8.40342-2.137761-2.02207-.443956-6.39448-1.183767-9.71644-1.644028-3.73661-.517705-9.74538-.836836-15.75643-.836836-6.0221 0-12.01294.318713-15.75641.838241-3.32197.461033-8.23131 1.310301-10.90963 1.887264-2.67832.576961-7.49938 1.88191-10.71347 2.89987-3.21409 1.01798-8.2313 2.87632-11.14935 4.12966-2.91804 1.25334-7.55082 3.5013-10.29506 4.99546-2.74425 1.49418-6.99848 4.04932-9.45384 5.67808-2.45539 1.62878-6.71767 4.77407-9.47176 6.98958-2.75409 2.2155-7.74058 6.86365-11.0811 10.32922-3.34051 3.46557-7.75208 8.53459-9.80346 11.26447-2.05139 2.72988-4.9348 6.9067-6.40757 9.28181-1.47278 2.37512-4.06067 7.08184-5.75084 10.45936-1.69019 3.37754-3.92087 8.42695-4.95708 11.22092-1.03622 2.79397-2.59428 7.6401-3.46237 10.76918-.86808 3.12907-2.07735 8.52599-2.68725 11.99314-.6413 3.6457-1.22552 9.77421-1.38544 14.53367-.27654 8.22977-.27654 8.22977 1.0806 9.5872 1.01706 1.01727 1.89556 1.35743 3.50574 1.35743 1.56126 0 2.48951-.34097 3.39569-1.24735.78253-.7827 1.35154-2.10362 1.52744-3.54596.15419-1.26422.40189-5.01715.55044-8.33983.14856-3.32269.74543-8.65718 1.32637-11.85443.58095-3.19726 1.65963-7.92519 2.39707-10.50652.73743-2.58134 2.19519-6.9391 3.23947-9.68393 1.04427-2.74483 3.16233-7.52489 4.70679-10.62238 1.54447-3.09748 3.65139-6.95031 4.68205-8.56183 1.03066-1.61153 2.46564-3.15507 3.18884-3.4301.7232-.27501 2.00483-.50003 2.84808-.50003.93775 0 2.17338.57217 3.18172 1.47331 1.29862 1.16057 1.65689 1.91324 1.68781 3.54595.0308 1.62421-.72387 3.43656-3.48785 8.37655-1.93989 3.46716-4.49838 8.78608-5.68553 11.81984-1.18714 3.03375-2.71782 7.38502-3.40149 9.6695-.68368 2.28447-1.72843 6.65779-2.32168 9.71852-.59324 3.06073-1.30256 9.44185-1.57627 14.18028-.41891 7.25196-.69255 9.03932-1.72918 11.29451-.67734 1.47354-1.86964 3.43375-2.64955 4.356-.77992.92224-2.86438 2.39973-4.63215 3.28328-2.74753 1.37325-3.79975 1.60647-7.24807 1.60647zm43.01154-86.92946c-.98025.12816-2.28141.0202-2.89145-.2397-.61005-.26-1.61453-1.1153-2.23215-1.90065-.65155-.82848-1.12298-2.18457-1.12298-3.23025 0-.9913.24335-2.25715.54078-2.81303.29743-.55586 1.23108-1.36771 2.07478-1.80409.84369-.43639 2.12546-.79343 2.84839-.79343.72293 0 1.90499.26915 2.62684.59812.72184.32896 1.70035 1.41571 2.17444 2.41504.55084 1.16105.74666 2.43187.54248 3.52047-.17573.93695-.87288 2.22351-1.54919 2.85902-.67634.63551-2.0317 1.26033-3.01194 1.3885z"/><defs><path id="a" d="M128.47232 1534.1107h1660.9207v447.60107H128.47232z"/></defs><text xml:space="preserve" transform="translate(17.219979 31.926294) scale(.26465)" style="font-size:256px;font-family:Hardigan;-inkscape-font-specification:Hardigan;text-align:center;white-space:pre;shape-inside:url(#a);fill:#fff;fill-opacity:1;stroke-width:8;stroke-linecap:round;stroke-linejoin:round"><tspan x="493.30762" y="1760.7312">GLOBAL</tspan></text></svg>