<svg width="2048" height="2048" viewBox="0 0 541.9 541.9" xmlns="http://www.w3.org/2000/svg"><path fill-rule="evenodd" d="M406.4 0a135.5 135.5 0 0 1 135.5 135.5v270.9a135.5 135.5 0 0 1-135.5 135.5H0V0Z" style="font-variation-settings:normal;-inkscape-stroke:none"/><path fill="#ff2000" d="M406.4 33.9A101.6 101.6 0 0 1 508 135.5v270.9H33.9V33.9Z" color="#000" style="-inkscape-stroke:none"/><path stroke="#000" stroke-linecap="round" stroke-linejoin="round" stroke-width="8.22" d="M373.66 88.78a28.7 28.7 0 0 0-25.2 42.33l-46.95 46.95a37.94 37.94 0 0 0-46.8 0l-36.63-36.64a18.86 18.86 0 0 0 2.71-9.65c0-10.53-8.57-19.1-19.1-19.1a19.13 19.13 0 0 0-19.12 19.1 19.13 19.13 0 0 0 19.11 19.11c3.54 0 6.8-1.02 9.65-2.7l36.63 36.63a38 38 0 0 0 0 46.8l-60.5 60.5a28.52 28.52 0 0 0-19.22-7.47 28.7 28.7 0 0 0-28.66 28.66 28.7 28.7 0 0 0 28.66 28.67 28.7 28.7 0 0 0 25.2-42.33l61.28-61.28a38 38 0 0 0 18.62 7.73v48.53a28.68 28.68 0 0 0-23.88 28.24 28.7 28.7 0 0 0 28.66 28.66 28.7 28.7 0 0 0 28.66-28.66 28.69 28.69 0 0 0-23.88-28.24V246.1a38 38 0 0 0 18.62-7.73L338.15 275a18.84 18.84 0 0 0-2.7 9.65 19.11 19.11 0 0 0 38.2 0c0-10.54-8.56-19.1-19.1-19.1-3.54 0-6.8 1.02-9.65 2.7l-36.63-36.63a38 38 0 0 0 0-46.8l46.17-46.17a28.5 28.5 0 0 0 19.22 7.47 28.7 28.7 0 0 0 28.66-28.67 28.7 28.7 0 0 0-28.66-28.66Zm-181.53 43a9.56 9.56 0 0 1 19.1 0 9.56 9.56 0 0 1-19.1 0zM168.24 332.4a19.13 19.13 0 0 1-19.1-19.1 19.12 19.12 0 0 1 19.1-19.12c10.54 0 19.11 8.57 19.11 19.11s-8.57 19.11-19.1 19.11zm128.98-9.55c0 10.54-8.57 19.1-19.1 19.1a19.13 19.13 0 0 1-19.11-19.1 19.13 19.13 0 0 1 19.1-19.11 19.13 19.13 0 0 1 19.11 19.1zm-19.1-85.99a28.7 28.7 0 0 1-28.67-28.66 28.7 28.7 0 0 1 28.67-28.67 28.7 28.7 0 0 1 28.66 28.67 28.7 28.7 0 0 1-28.66 28.66zm85.98 47.77a9.56 9.56 0 0 1-19.1 0 9.56 9.56 0 0 1 19.1 0zm9.56-148.09a19.13 19.13 0 0 1-19.11-19.1 19.13 19.13 0 0 1 19.1-19.12c10.55 0 19.12 8.57 19.12 19.11s-8.57 19.11-19.11 19.11z"/><g aria-label="LOCAL" style="font-weight:700;font-size:256px;font-family:Hardigan;-inkscape-font-specification:'Hardigan Bold';text-align:center;text-anchor:middle;white-space:pre;fill:#fff;stroke-width:64;stroke-linecap:round;stroke-linejoin:round"><path d="M172.55202459 455.04920905h9.92248537v33.07495125h23.15246588v9.92248537h-33.07495125zM208.93447096 471.58668467q0-16.53747562 16.53747563-16.53747562h3.30749512q16.53747563 0 16.53747563 16.53747562v9.92248538q0 16.53747562-16.53747563 16.53747562h-3.30749512q-16.53747563 0-16.53747563-16.53747562zm16.53747563-6.61499025q-6.61499025 0-6.61499025 6.61499025v9.92248538q0 6.61499025 6.61499025 6.61499025h3.30749512q6.61499025 0 6.61499025-6.61499025v-9.92248538q0-6.61499025-6.61499025-6.61499025zM271.77687834 455.04920905q16.53747562 0 16.53747562 16.53747562h-9.92248537q0-6.61499025-6.61499025-6.61499025h-3.30749513q-6.61499025 0-6.61499025 6.61499025v9.92248538q0 6.61499025 6.61499025 6.61499025h3.30749513q6.61499025 0 6.61499025-6.61499025h9.92248537q0 16.53747562-16.53747562 16.53747562h-3.30749513q-16.53747562 0-16.53747562-16.53747562v-9.92248538q0-16.53747562 16.53747562-16.53747562zM315.99808816 484.81666517l-4.53126832-10.18708498-4.53126832 10.18708498zm4.43204347 9.92248538h-17.92662358l-1.45529786 3.30749512h-10.88165896l21.3002686-47.79330455 21.30026861 47.79330455h-10.88165896zM336.27303327 455.04920905h9.92248538v33.07495125h23.15246587v9.92248537h-33.07495125z"/></g></svg>