<svg width="2048" height="2048" viewBox="0 0 542 542" xml:space="preserve" xmlns="http://www.w3.org/2000/svg"><defs><path id="a" d="M127.99995 1536h1764.0924v401.43664H127.99995z"/></defs><path fill-rule="evenodd" d="M512 0A512 512 0 0 0 0 512v1024a512 512 0 0 0 512 512h1536V0Z" style="font-variation-settings:normal;-inkscape-stroke:none" transform="translate(-.00001322 -.00001322) scale(.26465)"/><path fill="#a000c0" d="M512 128a384 384 0 0 0-384 384v1024h1792V128Z" color="#000" style="fill:#ffa000;fill-opacity:1" transform="translate(-.00001322 -.00001322) scale(.26465)"/><path d="M478.7959 1676.9949v85.625h-37.5v-174.75l100 97.875v-85.625h37.5v174.75zm210.875 35.625-17.125-38.5-17.125 38.5zm16.75 37.5h-67.75l-5.5 12.5h-41.125l80.5-180.625 80.5 180.625h-41.125zm122.375-112.5v125h-37.5v-125h-50v-37.5h137.5v37.5zm112.5 125h-37.5v-162.5h37.5zm25-100q0-62.5 62.5-62.5h12.5q62.5 0 62.5 62.5v37.5q0 62.5-62.5 62.5h-12.5q-62.5 0-62.5-62.5zm62.5-25q-25 0-25 25v37.5q0 25 25 25h12.5q25 0 25-25v-37.5q0-25-25-25zm137.5 39.375v85.625h-37.5v-174.75l100 97.875v-85.625h37.5v174.75zm210.875 35.625-17.125-38.5-17.125 38.5zm16.75 37.5h-67.75l-5.5 12.5h-41.125l80.5-180.625 80.5 180.625h-41.125zm59.875-150h37.5v125h87.5v37.5h-125z" aria-label="NATIONAL" transform="translate(3.6929216 30.055484) scale(.26465)" style="font-size:256px;font-family:Hardigan;-inkscape-font-specification:Hardigan;text-align:center;text-anchor:middle;white-space:pre;shape-inside:url(#a);fill:#fff;stroke-width:8;stroke-linecap:round;stroke-linejoin:round"/><path d="M371.91217327 120.55442166c-38.4719997-2.91695935-70.05783696-14.1687688-96.56241678-34.39693709-2.5697401-1.9599892-6.13138398-1.9599892-8.69900688 0-26.50405053 20.2281683-58.09041709 31.47997774-96.56294608 34.39693709-3.7394879.28317424-6.62786517 3.3996788-6.62786517 7.14869406v103.95511705c0 23.62096623 17.67748292 51.61128456 52.54126053 83.19447533 25.23267757 22.85771902 50.05779595 39.00764891 51.10210021 39.68356201 1.18509744.7680109 2.54062872 1.1512224 3.8966893 1.1512224 1.35606058 0 2.71053327-.3837408 3.8972186-1.1512224 1.04377496-.6759131 25.86889334-16.825843 51.10157091-39.683562 34.86377761-31.58319078 52.54126053-59.57350911 52.54126053-83.19447534V127.70311572c-.0005293-3.74848596-2.88890657-6.86499052-6.62786517-7.14869406zm-7.71133747 111.10381111c0 37.5462581-63.92592368 88.51021163-93.2013767 108.26254133-29.27545302-19.7523297-93.2013767-70.71628323-93.2013767-108.26254133v-97.39288479c36.33628367-3.68655813 66.93498082-14.6837754 93.201906-33.49395529 26.26692518 18.80965059 56.86615162 29.80739716 93.2013767 33.493426v97.39341408z"/><path d="M215.19613716 250.54145573c-2.25692518-3.25359265-6.72419735-4.06130086-9.97779-1.80437568-3.25359265 2.25692518-4.06130087 6.72419734-1.80437569 9.97779 7.38529011 10.64576363 17.92095984 22.22256183 31.31642476 34.41122812 1.374586 1.25020104 3.10062564 1.8668328 4.82296019 1.8668328 1.94887395 0 3.88980843-.79024138 5.30462105-2.34425928 2.66501366-2.9286039 2.45064812-7.46309687-.47795578-10.12758124-12.59622548-11.4624699-22.41575548-22.22150324-29.18388453-31.97963472z"/><path d="M267.28114311 120.40463042c-20.72994246 12.57558287-43.37488382 20.9252533-69.23054473 25.52590847-3.42138.6092216-5.91331334 3.58387439-5.91331334 7.05871346v67.19804175c0 3.95967572 3.20966095 7.16933667 7.16933667 7.16933667h64.52403002v86.12519642c0 3.95967572 3.21707112 7.17674684 7.17674684 7.17674684 1.53443388 0 3.02758256-.49277612 4.26137538-1.40369737 11.39366121-8.42165491 21.9817314-17.0523824 31.47256756-25.65241061 27.40385654-24.82829417 43.12135025-47.40548543 43.12135025-61.94370398V220.1878234c0-3.95967572-3.21019025-7.16933667-7.16933667-7.16933667h-64.52403002v-86.48406022c0-2.58879481-1.3957579-4.9769858-3.65215379-6.24730017-2.25639588-1.26978506-5.0214468-1.22532406-7.23602817.11750408zm-3.45049138 92.61332701h-57.35469335v-54.09474912c20.83686058-4.22114876 39.74601913-10.84425026 57.35469335-20.10113686zm14.33867334 14.33867334h57.35469335v4.301602c0 6.13561836-8.08925598 23.84803492-38.40954256 51.31805366-5.89267074 5.3390254-12.2331273 10.6965762-18.9451508 16.01125391zm24.24077377-77.77923107c10.46791963 3.86228495 21.58105309 6.99731493 33.11391958 9.34316212v28.2877836c0 3.95967572 3.21019025 7.16933667 7.16933667 7.16933667 3.95861713 0 7.16933667-3.20966095 7.16933667-7.16933667v-34.21909307c0-3.47483907-2.49193333-6.44949186-5.91331334-7.05818416-12.8180012-2.28127287-25.12364226-5.58038513-36.57552621-9.80629756-3.7167281-1.37088092-7.8383689.52982694-9.20819122 4.24443785-1.37141021 3.7151402.52929765 7.8373103 4.24443785 9.20819122z"/></svg>