<svg width="2048" height="2048" viewBox="0 0 542 542" xmlns="http://www.w3.org/2000/svg"><defs><path id="a" d="M197.86587 1536h1298.4948v364.33679H197.86587z"/></defs><path fill-rule="evenodd" d="M512 0A512 512 0 0 0 0 512v1024a512 512 0 0 0 512 512h1536V0Z" style="font-variation-settings:normal;-inkscape-stroke:none" transform="matrix(.26465 0 0 .26465 -.00001322 -.00001322)"/><path fill="#a000c0" d="M512 128a384 384 0 0 0-384 384v1024h1792V128Z" color="#000" style="-inkscape-stroke:none" transform="matrix(.26465 0 0 .26465 -.00001322 -.00001322)"/><g stroke="#000" stroke-linecap="round" stroke-linejoin="round" stroke-width="2.1"><path d="M372.52 113.18h-37.15a10.97 10.97 0 0 0-9.5-5.5H314.9V91.24a5.49 5.49 0 0 0-5.49-5.5H232.6a5.49 5.49 0 0 0-5.5 5.5v16.46h-10.97c-4.05 0-7.59 2.21-9.49 5.49h-37.15a5.49 5.49 0 0 0-5.5 5.48v230.49a5.49 5.49 0 0 0 5.5 5.49h203.04a5.49 5.49 0 0 0 5.5-5.5V118.67a5.49 5.49 0 0 0-5.5-5.48zm-156.4 5.48h76.83V107.7h-54.88v-11h65.86v16.47a5.49 5.49 0 0 0 5.48 5.48h16.47v19.21H216.12Zm109.76 30.19c4.05 0 7.59-2.22 9.49-5.5h12.46v134.46h-41.16a5.49 5.49 0 0 0-5.49 5.49v41.15h-107v-181.1h12.45a10.97 10.97 0 0 0 9.5 5.5zm14.19 139.93-27.91 27.91v-27.9Zm26.97 54.88H174.96v-219.5h30.19v8.22h-16.47a5.49 5.49 0 0 0-5.48 5.5v192.06a5.49 5.49 0 0 0 5.48 5.49h117.98s0 0 0 0c1.44 0 2.84-.56 3.9-1.6l46.64-46.65a5.48 5.48 0 0 0 1.59-3.88h.01V137.87a5.49 5.49 0 0 0-5.48-5.49h-16.47v-8.23h30.19z"/><path d="M216.12 168.05h115.25v10.98H216.12zm-5.49 27.45h120.74v10.97H210.63zm0 27.43h120.74v10.98H210.63zm0 27.44h120.74v10.98H210.63zm0 27.43h71.35v10.98h-71.35z"/></g><g aria-label="NEEDS" transform="matrix(.26465 0 0 .26465 46.812783 29.278079)" style="font-size:256px;font-family:Hardigan;-inkscape-font-specification:Hardigan;text-align:center;text-anchor:middle;white-space:pre;shape-inside:url(#a);fill:#fff;stroke-width:8;stroke-linecap:round;stroke-linejoin:round"><path d="M509.61328 1676.9949v85.625h-37.5v-174.75l100 97.875v-85.625h37.5v174.75zM672.11328 1725.1199h87.5v37.5h-125v-162.5h125v37.5h-87.5v25h75v37.5h-75zM822.11328 1725.1199h87.5v37.5h-125v-162.5h125v37.5h-87.5v25h75v37.5h-75zM1009.6133 1600.1199q62.5 0 62.5 62.5v37.5q0 62.5-62.5 62.5h-75.00002v-162.5zm25 62.5q0-25-25-25h-37.50002v87.5h37.50002q25 0 25-25zM1159.6133 1600.1199h62.5v37.5h-62.5q-25 0-25 12.5t25 12.5q62.5 0 62.5 50t-62.5 50h-62.5v-37.5h62.5q25 0 25-12.5t-25-12.5q-62.5 0-62.5-50t62.5-50z"/></g></svg>