<svg width="2048" height="2048" viewBox="0 0 541.87 541.87" xmlns="http://www.w3.org/2000/svg"><path fill-rule="evenodd" d="M406.4 0a135.47 135.47 0 0 1 135.47 135.47V406.4A135.47 135.47 0 0 1 406.4 541.87H0V0Z" style="font-variation-settings:normal;-inkscape-stroke:none"/><path fill="#4020ff" d="M406.4 33.87A101.6 101.6 0 0 1 508 135.47V406.4H33.87V33.87Z" color="#000" style="-inkscape-stroke:none"/><path d="M446.15 344.7 276.8 87.84a7.03 7.03 0 0 0-11.73 0L95.7 344.7a7.03 7.03 0 0 0 5.87 10.89h338.7a7.03 7.03 0 0 0 5.87-10.9zM346.01 218.35h-8.57l-47.78-47.78h24.85zm-28.45 0h-27.55l-47.79-47.78h27.67c.2.26.4.51.64.75zm-46.63-113.88 34.31 52.04h-68.62zm-45.56 69.12 44.76 44.76h-28.26l-27.73-27.73zm-19.13 29L222 218.35h-26.14zM186.6 232.4h168.69l31.04 47.08H155.55Zm-71.96 109.15 31.65-48.02h30.32l-48.02 48.02Zm33.83 0 47.33-47.34c.22-.21.41-.44.6-.68h32.28l-48.01 48.02zm52.07 0 47.34-47.34c.21-.21.4-.44.59-.68h32.14l-48.02 48.02zm103.3 0L317.36 328a7.03 7.03 0 0 0-9.94-9.93l-23.46 23.46h-31.5l47.33-47.33c.22-.22.41-.44.6-.68h83.5l-48 48.01zm51.93 0 43.08-43.08 13.88 21.05-22.03 22.03zm54.8 0 10.05-10.05 6.63 10.05z"/><path d="M332.82 302.62a7.03 7.03 0 0 0-9.94 0l-.7.7a7.03 7.03 0 0 0 9.94 9.94l.7-.7a7.03 7.03 0 0 0 0-9.94z"/><g aria-label="STRATIFIED" style="font-weight:700;font-size:256px;font-family:Hardigan;-inkscape-font-specification:'Hardigan Bold';text-align:center;text-anchor:middle;white-space:pre;fill:#fff;stroke-width:64;stroke-linecap:round;stroke-linejoin:round"><path d="M112.1840073 455.0352978h16.53656v9.921936h-16.53656q-6.614624 0-6.614624 3.307312t6.614624 3.307312q16.53656 0 16.53656 13.229248t-16.53656 13.229248h-16.53656v-9.921936h16.53656q6.614624 0 6.614624-3.307312t-6.614624-3.307312q-16.53656 0-16.53656-13.229248t16.53656-13.229248zM155.1790633 464.9572338v33.07312h-9.921936v-33.07312h-13.229248v-9.921936h36.380432v9.921936zM201.4814313 471.5718578q0-6.614624-6.614624-6.614624h-9.921936v13.229248h9.921936q6.614624 0 6.614624-6.614624zm-6.614624-16.53656q16.53656 0 16.53656 16.53656 0 12.20398128-8.99588864 15.41207392l11.04642208 11.04642208h-14.02300288l-14.48602656-14.48602656v14.48602656h-9.921936v-42.995056zM240.73922474 484.8011058l-4.53101744-10.18652096-4.53101744 10.18652096zm4.43179808 9.921936h-17.92563104l-1.45521728 3.307312h-10.88105648l21.29908928-47.7906584 21.29908928 47.7906584H246.6262401zM277.5496073 464.9572338v33.07312h-9.921936v-33.07312h-13.229248v-9.921936h36.380432v9.921936zM307.3154206 498.0303538h-9.9219413v-42.995056h9.9219413zM347.0031646 455.0352978v9.921936h-23.151184v6.614624h19.843872v9.921936h-19.843872v16.53656h-9.921936v-42.995056zM363.5397246 498.0303538h-9.921936v-42.995056h9.921936zM380.0762846 488.1084178h23.151184v9.921936h-33.07312v-42.995056h33.07312v9.921936h-23.151184v6.614624h19.843872v9.921936h-19.843872zM429.6859646 455.0352978q16.53656 0 16.53656 16.53656v9.921936q0 16.53656-16.53656 16.53656h-19.843872v-42.995056zm6.614624 16.53656q0-6.614624-6.614624-6.614624h-9.921936v23.151184h9.921936q6.614624 0 6.614624-6.614624z"/></g></svg>