<svg width="2048" height="2048" viewBox="0 0 542 542" xmlns="http://www.w3.org/2000/svg"><path fill-rule="evenodd" d="M512 0A512 512 0 0 0 0 512v1024a512 512 0 0 0 512 512h1536V0Z" style="font-variation-settings:normal;-inkscape-stroke:none" transform="translate(-.1250188 -.00833459) scale(.26465)"/><path fill="#e06000" d="M512 128a384 384 0 0 0-384 384v1024h1792V128Z" color="#000" style="-inkscape-stroke:none;fill:#e06000;fill-opacity:1" transform="translate(-.1250188 -.00833459) scale(.26465)"/><path d="M400.63 205a162.9 162.9 0 0 0-23.84-50.7l16.82-16.82a7.1 7.1 0 0 0 0-10.05l-29.98-29.98a7.1 7.1 0 0 0-10.05 0l-16.82 16.82a162.87 162.87 0 0 0-51.06-23.94 164.43 164.43 0 0 0-81.61-.99 7.1 7.1 0 0 0-.3 13.73c32.94 9.52 64.85 26.83 93.57 50.6l-14.12 14.12a7.1 7.1 0 0 0-.08 9.96l-145.7 145.7a7.1 7.1 0 0 0 0 10.05l20.1 20.1a7.09 7.09 0 0 0 10.04 0l70.6-70.6a7.1 7.1 0 0 0-10.06-10.04l-65.56 65.56-10.05-10.04L293.21 187.8l10.05 10.05-45.22 45.22a7.1 7.1 0 0 0 10.05 10.04l45.22-45.22a7.08 7.08 0 0 0 9.96-.08l14.17-14.16c23.7 28.52 41.06 60.23 50.72 92.97a7.1 7.1 0 0 0 13.72-.36 164.51 164.51 0 0 0-1.25-81.25zm-42.02-92.48 19.92 19.93-10.47 10.48-.42-.49-1.13-1.32a179.33 179.33 0 0 0-2.81-3.16l-.75-.82c-.51-.55-1.02-1.1-1.54-1.63l-.67-.71a159.85 159.85 0 0 0-4.5-4.5l-.68-.65a158.9 158.9 0 0 0-5.65-5.12l-1.3-1.13-.48-.4zm-40.37 80.22-19.92-19.93 9.8-9.8c1.7 1.54 3.36 3.1 5.02 4.67l1.01.97a268.24 268.24 0 0 1 9.59 9.62c1.45 1.53 2.9 3.08 4.33 4.65zm73.8 62.74c-13.45-31.68-33.67-61.82-59.48-88.54l-.45-.47a317.55 317.55 0 0 0-7.2-7.2l-.37-.35c-27.04-26.1-57.54-46.45-89.59-59.88a147.67 147.67 0 0 1 98.09 30.06c.05.04.1.1.16.13a150.1 150.1 0 0 1 11.08 9.33l.8.75a149.12 149.12 0 0 1 6.66 6.66l.76.81a149.73 149.73 0 0 1 9.32 11.09l.11.12a147.75 147.75 0 0 1 30.11 97.49z"/><path d="M255.08 261.65a7.19 7.19 0 0 0-4.25-5.17 7.17 7.17 0 0 0-5.43 0 7.28 7.28 0 0 0-3.2 2.61 7.03 7.03 0 0 0-1.19 3.94 7.14 7.14 0 0 0 3.17 5.92 7.19 7.19 0 0 0 5.32 1.05 7.13 7.13 0 0 0 5.58-8.35z"/><path d="M171.63182503 481.60636185v-26.464844h9.9243165v26.464844q0 6.616211 6.616211 6.616211h3.3081055q6.616211 0 6.616211-6.616211v-26.464844h9.9243165v26.464844q0 16.5405275-16.5405275 16.5405275h-3.3081055q-16.5405275 0-16.5405275-16.5405275zm59.545899-26.464844h16.5405275v9.9243165h-16.5405275q-6.616211 0-6.616211 3.3081055t6.616211 3.3081055q16.5405275 0 16.5405275 13.232422t-16.5405275 13.232422h-16.5405275v-9.9243165h16.5405275q6.616211 0 6.616211-3.3081055t-6.616211-3.3081055q-16.5405275 0-16.5405275-13.232422t16.5405275-13.232422zm44.22935995 29.7729495-4.53210453-10.18896494-4.53210454 10.18896494zm4.43286137 9.9243165h-17.92992122l-1.45556642 3.3081055h-10.8836671l21.30418884-47.80212447 21.30419942 47.80212447h-10.8836671zm30.7323001-39.697266h19.848633v9.9243165h-19.848633q-6.616211 0-6.616211 6.616211v9.9243165q0 6.616211 6.616211 6.616211h9.9243165v-16.5405275l9.9243165 6.616211v19.848633h-19.848633q-16.5405275 0-16.5405275-16.5405275v-9.9243165q0-16.5405275 16.5405275-16.5405275zm36.3891605 33.081055h23.1567385v9.9243165h-33.081055v-43.0053715h33.081055v9.9243165h-23.1567385v6.616211h19.848633v9.9243165h-19.848633z" aria-label="USAGE" style="font-weight:700;font-size:256px;font-family:Hardigan;-inkscape-font-specification:'Hardigan Bold';text-align:center;text-anchor:middle;white-space:pre;fill:#fff;stroke-width:64;stroke-linecap:round;stroke-linejoin:round"/></svg>